<?xml version="1.0" encoding="UTF-8"?>
<svg width="756" height="420" id="Layer_1" xmlns="http://www.w3.org/2000/svg" version="1.1" viewBox="0 0 378 210">
  <defs>
    <style>
      .st0 {
        fill: #D6D6D6;
      }
    </style>
  </defs>
  <path class="st0" d="M178.3,62.3h-4l-3.4,4.4h2.7l4.8-4.4Z"/>
  <path class="st0" d="M117,90h0v3.1h3.1v-12.3h-9.7v2.9h6.5v.3c0,4.4-4.8,6.6-8.6,6.6-6,0-10-4.3-10-10.2s4.1-10.2,9.8-10.2,7.3,2.1,8.7,6.3l3.3-1c-1.9-5.5-6.3-8.4-11.9-8.4s-13.3,5.7-13.3,13.4,5.6,13.2,13.3,13.2c3.1,0,6.6-1.1,8.7-3.7Z"/>
  <path class="st0" d="M142.4,80.3c0-8.2-5.3-12.6-12.5-12.6h-6.3v25.4h6.2c7,0,12.6-4.5,12.6-12.8ZM126.8,70.7h3.1c5.4,0,9.2,3.2,9.2,9.7s-3.8,9.7-9.2,9.7h-3.1v-19.4Z"/>
  <path class="st0" d="M144.9,93.1l3-9.8h7.8l3,9.8h3.4l-8-25.4h-4.3l-8,25.4h3.2ZM151.7,70.7h0l2.9,9.7h-6l2.9-9.7Z"/>
  <path class="st0" d="M166.2,70.7h0l10.6,22.4h5.2v-25.4h-3.1v22.4c0,0,0,0,0,0l-10.6-22.4h-5.2v25.4h3.1v-22.4Z"/>
  <path class="st0" d="M188.3,74.1c0-2.3,1.6-4,4.7-4s5,2.4,5.4,5.9l3.1-.7c-.5-4.9-3.4-8.1-8.5-8.1s-8.1,3.4-8.1,7.1c0,9.7,13.6,5.6,13.6,12.4s-1.8,4.1-4.9,4.1-5.4-2.6-5.9-6.2l-3.4.8c.6,5.1,3.8,8.4,9.2,8.4s8.3-3.5,8.3-7.2c0-9.7-13.6-5.6-13.6-12.4Z"/>
  <path class="st0" d="M221.7,67.7h-3.9l-10.3,11.1v-11.1h-3.2v25.4h3.2v-10.4l3.2-3.5,7.6,13.8h3.7l-8.9-16.2,8.5-9.1Z"/>
  <path class="st0" d="M147.9,120.1v-25.4h-5.3l-6.7,21.1h0l-6.7-21.1h-5.3v25.4h3.1v-22.4c0,0,0,0,0,0l7.2,22.4h3.5l7.2-22.4h0v22.4c0,0,3.1,0,3.1,0Z"/>
  <path class="st0" d="M156.5,94.7h-3.2v25.4h3.2v-25.4Z"/>
  <path class="st0" d="M173.8,110.3l3,9.8h3.4l-8-25.4h-4.3l-8,25.4h3.2l3-9.8h7.8ZM169.9,97.6h0l2.9,9.7h-6l2.9-9.7Z"/>
  <path class="st0" d="M189.3,97.1c3.7,0,5,2.4,5.4,5.9l3.1-.7c-.5-4.9-3.4-8.1-8.5-8.1s-8.1,3.4-8.1,7.1c0,9.7,13.6,5.6,13.6,12.4s-1.8,4.1-4.9,4.1-5.4-2.6-5.9-6.2l-3.4.8c.6,5.1,3.8,8.4,9.2,8.4s8.3-3.5,8.3-7.2c0-9.7-13.6-5.6-13.6-12.4s1.6-4,4.7-4Z"/>
  <path class="st0" d="M237.3,94.1c-7.4,0-13.4,5.7-13.4,13.4s5.8,13.2,13.2,13.2,13.4-5.7,13.4-13.4-5.8-13.2-13.2-13.2ZM237.2,117.5c-5.8,0-9.9-4.3-9.9-10.2s4.1-10.2,9.9-10.2,9.9,4.3,9.9,10.2-4.1,10.2-9.9,10.2Z"/>
  <path class="st0" d="M107.1,121.7h-3.2v25.4h13.4v-3h-10.2v-22.4Z"/>
  <path class="st0" d="M123.2,121.7h-3.2v25.4h3.2v-25.4Z"/>
  <path class="st0" d="M125.9,124.7h7.5v22.4h3.2v-22.4h7.5v-3h-18.1v3Z"/>
  <path class="st0" d="M149.1,135.5h10.8v-3h-10.8v-7.8h10.9v-3h-14.1v25.4h14.3v-3h-11.1v-8.6Z"/>
  <path class="st0" d="M172.7,135.4c4.8,0,7.6-3,7.6-6.9s-2.8-6.8-7.5-6.8h-9.4v25.4h3.2v-11.6h.2l10.2,11.6h4.1c0,0-10.2-11.6-10.2-11.6h1.9ZM166.6,132.5v-7.8h6.2c2.7,0,4.2,1.7,4.2,3.9s-1.5,3.9-4.2,3.9h-6.2Z"/>
  <path class="st0" d="M189,121.7l-8,25.3h0c0,0,3.1,0,3.1,0l3-9.8h7.8l3,9.8h3.4l-8-25.4h-4.3ZM188.1,134.4l2.9-9.7h0l2.9,9.7h-6Z"/>
  <path class="st0" d="M240.5,137.7c0,4.6-2.5,6.8-6,6.8s-6-2.2-6-6.8v-16.1h-3.2v16.1c0,6.3,4,9.9,9.1,9.9s9.3-3.7,9.3-10v-16h-3.2v16.1Z"/>
  <path class="st0" d="M256.5,135.4c4.8,0,7.6-3,7.6-6.9s-2.8-6.8-7.5-6.8h-9.4v25.4h3.2v-11.6h.2l10.2,11.6h4.1l-10.2-11.6h1.9ZM250.3,132.5v-7.8h6.2c2.7,0,4.2,1.7,4.2,3.9s-1.5,3.9-4.2,3.9h-6.2Z"/>
  <path class="st0" d="M279.6,121.7l-6.2,10.2h0l-6.2-10.2h-3.5l8.1,13.2v12.2h3.2v-12.2l8.1-13.2h-3.4Z"/>
  <path class="st0" d="M205.2,131.4c-1.7,0-3,1.3-3,3s1.3,3,3,3,3-1.3,3-3-1.3-3-3-3Z"/>
  <path class="st0" d="M217.9,131.4c-1.7,0-3,1.3-3,3s1.3,3,3,3,3-1.3,3-3c0-1.7-1.3-3-3-3Z"/>
  <path class="st0" d="M209.9,121.9v25.1h3.2v-52.3h-3.2v27.3Z"/>
  <path class="st0" d="M205.2,104.4c-1.7,0-3,1.3-3,3s1.3,3,3,3,3-1.3,3-3-1.3-3-3-3Z"/>
  <path class="st0" d="M217.9,104.4c-1.7,0-3,1.3-3,3s1.3,3,3,3,3-1.3,3-3-1.3-3-3-3Z"/>
</svg>