<?xml version="1.0" encoding="UTF-8"?>
<svg width="756" height="420" id="Layer_1" xmlns="http://www.w3.org/2000/svg" version="1.1" viewBox="0 0 378 210">
  <defs>
    <style>
      .st0 {
        fill: #fff;
        fill-rule: evenodd;
      }
    </style>
  </defs>
  <path class="st0" d="M271.6,145.8c0,.2.2.4.5.4,0,0,0,0,0,0h1.2v-1.3c0-.2-.2-.4-.4-.4h-1.2v1.3ZM275.4,143.6c0,1.7,1.2,2.7,3.1,2.7s2.8-.7,2.8-1.8c0-.5-.2-1-.6-1.3,0,1.2-.9,1.7-2,1.7s-1.6-.7-1.6-1.8v-3.6h2.3c1,0,1-1.4,1-1.4h-3.3v-.6c0-1.4-1.3-1.4-1.7-1.4v7.4ZM285.4,139.2c.9,0,1.7.4,1.7,1.4.3-.4.6-.9.6-1.4,0-1-.9-1.4-2-1.4s-1.6.3-2.2.3c-.4,0-.8-.1-1.1-.3v7.5c0,.9,1.7.9,1.7.9v-6.9c.4-.1.9-.2,1.3-.2ZM293.3,144.7c-.5.3-1.1.4-1.7.4-1.2,0-1.7-.5-1.7-1.2,0-1.7,3.1-1.1,3.4-2.1v2.9ZM288.2,143.9c0,1.8,1.6,2.5,3.1,2.5s1.6-.3,2.4-.3c.4,0,.8,0,1.2.2v-5.8c0-1.7-1.2-2.7-3.4-2.7s-3.1.5-3.1,1.8c0,.5.2,1,.5,1.4,0-1.2,1.1-1.8,2.6-1.8s1.7.6,1.7,1.3c-.6,1.4-5,.4-5,3.5h0ZM303.7,137.9s-1.6,0-1.8.9l-.3,2.5c-.1,1.3-.7,2.5-1.6,3.4-.9-.9-1.5-2.1-1.6-3.4l-.3-2.6c-.1-.9-1.8-.9-1.8-.9l.3,3.2c.2,2.2,1.5,4.2,3.3,5.5,1.9-1.2,3.1-3.2,3.4-5.5l.3-3.1ZM311.3,143.4c0,1-1.1,1.7-2.7,1.7s-1.9-.5-1.9-1.6v-1c.5.2,1.1.4,1.6.3,2.5,0,3.3-1.2,3.3-2.5s-1.1-2.6-3.3-2.6-3.4,1-3.4,2.7v3.2c0,1.7,1.4,2.7,3.6,2.7s3.2-.7,3.2-1.8c0-.4-.2-.9-.5-1.2h0ZM306.6,140.7c0-1.1.3-1.7,1.6-1.7s1.6.5,1.6,1.3-.4,1.2-1.8,1.2c-.5,0-1,0-1.4-.2v-.5ZM313.4,143.9c0,1.3.5,2.4,1.7,2.4.4,0,.9-.2,1.1-.5-1,0-1.1-1.5-1.1-2.4v-8.5c0-.9-1.6-.9-1.7-.9v9.9Z"/>
  <path class="st0" d="M266.7,106.8c-2.1-.7-4.4.1-5.6,2-.5.8-.3,1.8.3,2.4.6.7,1.6.8,2.4.3.2-.2.4-.4.7-.6.2-.2.5-.3.8-.5.5-.2-.1.8-.2,1.1-.2.5-2.9,5.6-3.1,6.2-.5,1-.2,2.2.8,2.7,1,.6,2.2.2,2.7-.7,0,0,0,0,0,0,.5-1,3.5-6.6,3.8-7.6.6-2.2-.5-4.5-2.7-5.2ZM280.6,109.5c.4-.3,3-3,4.3-2.5,0,0,.4.4,0,1.4-.2.9-2.4,3.1-4,3.4-1.3.2-1.4-.4-1.1-1,.2-.5.5-.9.8-1.2ZM296.7,117.2h-1.7c-3.4,0-6.7.1-10.1.1-1.4,0-2.8-.3-4.1-.8-.5-.2-1-.5-1.5-.7-.3-.1-.5-.4-.4-.7.1-.2.4-.3.6-.4.4-.1.9-.1,1.3-.2,2.9-.7,5.5-2.4,7.2-4.9,1.5-2.1,1-4.5-1.4-5.5-1.9-.7-4-.5-5.7.7-2.1,1.3-3.8,3.1-4.9,5.3-.2.6-.7,1-1.3,1-.8,0-1.5.7-1.6,1.5-.2.8.1,1.6.8,2,.2.1.4.3.6.4-.2,1.6.6,3.1,1.9,4,.5.3,1,.6,1.6.9,2.1,1,4.4,1.6,6.8,1.6,3.4,0,6.8-.1,10.2-.2.6,0,1.3,0,1.9-.2,1.1-.1,1.9-1.1,1.8-2.2-.1-1-1.1-1.8-2.1-1.7h0ZM187.2,117.4c-.3.1-.6.2-.9.3-.5.2-1.1.3-1.6.2-.7,0-.9-.2-.9-.9,0-.6.1-1.3.3-1.9,1-2.2,2.9-3.9,5.2-4.7.8-.3,1.6-.2,2.4,0,.3.1.7.2,1.2.4-1,2.8-3.1,5.1-5.7,6.5h0ZM195.5,108.7c-.3,0-.6-.3-.7-.6-.2-.6-.6-1-1.1-1.2-1.5-.7-3.1-1-4.7-.7-3.4.7-6.4,2.8-8.1,5.8-.9,1.4-1.4,3-1.4,4.7,0,.4,0,.8.1,1.2.1,2,1.6,3.6,3.6,3.9,1.6.4,3.3.2,4.8-.5,2.2-.9,4.2-2.4,5.8-4.2,1.5-1.7,2.6-3.7,3.1-5.8.4-1,0-2.2-1.1-2.6-.1,0-.2,0-.4-.1h0ZM123,119.9c-.5.4-1,.7-1.6,1-.3.2-.6.3-1,.3-.3,0-.6,0-.9,0-.7,0-.9-.2-.9-.9,0-.6.1-1.2.4-1.8,1-2.2,2.9-3.9,5.2-4.7.8-.3,1.6-.2,2.4,0,.3.1.7.2,1.2.4-.9,2.3-2.6,4.3-4.7,5.6ZM130.4,112.2c-.3,0-.6-.3-.7-.6-.2-.5-.6-1-1.1-1.2-1.5-.7-3.1-1-4.7-.7-3.4.7-6.4,2.8-8.1,5.8-.9,1.4-1.4,3-1.4,4.7,0,.4,0,.8.1,1.2.1,2,1.6,3.6,3.6,3.9,1.6.3,3.3.1,4.8-.5,2.3-.8,4.3-2.3,5.8-4.2,1.5-1.7,2.5-3.7,3.1-5.8.4-1,0-2.2-1.1-2.6-.1,0-.2,0-.4-.1ZM252.4,95c0-1.1-.8-2.1-1.9-2.1-.2,0-.4,0-.6,0-.7.2-1.3.8-1.6,1.5-1.9,3.8-3.8,7.5-5.7,11.3-2.2,4.1-4.2,8.2-7.1,11.9-.1.2-.3.4-.4.6-.4,1,.1,2.2,1.1,2.6.3,0,.5.1.8.1.7,0,1.3-.4,1.7-.9,1.3-1.5,2.5-3.1,3.5-4.8,3.5-6.1,6.5-12.6,9.7-18.9.2-.4.3-.8.3-1.2h0ZM253.9,115.2c-1-.7-2-1.3-3-2l-1.3-.8c1.2-.8,2.5-1.4,3.8-1.9.8-.3,1.6-.3,2.4-.6,1.1-.3,1.6-1.5,1.3-2.5,0,0,0-.2-.1-.3-.5-.9-1.5-1.3-2.4-1-1.2.2-2.4.5-3.5.8-1.8.5-3.4,1.5-4.8,2.8-1.4,1.2-1.6,3.4-.4,4.8,0,0,.1.1.2.2.7.7,1.4,1.3,2.2,1.8.7.5,1.4.9,2.1,1.3,1.8,1.1,3.1,2.8,3.9,4.8.1.4.3.7.5,1,.5.7,1.4,1,2.1.7.8-.2,1.4-1,1.4-1.9,0-.4,0-.8-.2-1.2-.7-2.4-2.2-4.6-4.3-6.1h0ZM236.6,106.7c.8-.6,1-1.7.5-2.6-.5-1.3-1.8-2-3.1-2-3.2-.2-6.1,1.5-7.6,4.3-.8,1.3-1.2,2.8-1.3,4.3,0,1.5,0,3,0,4.5.1,2.3-.9,4.5-2.7,5.9-1.7,1.4-3.7,2.4-5.8,3.1-1,.3-2,.7-2.9,1.1-.7.2-1.2.8-1.4,1.5-.2,1.1.4,2.1,1.5,2.4.3,0,.7,0,1,0,1.9-.5,3.7-1.1,5.5-1.8,2.4-1,4.5-2.5,6.3-4.5,1.2-1.3,2-2.9,2.4-4.6.2-1.4,0-8.3,1-9.8.5-1.2,1.6-2.1,2.9-2.3.4-.1.8,0,1.1.3.7.7,1.8.8,2.6.1ZM220,108.9c1.1-.4,1.7-1.6,1.3-2.6-.3-.9-1.1-1.4-2-1.4-.3,0-.5,0-.8,0-1.7.4-3.3,1.1-4.7,2.2-1.2,1-2.5,2-3.6,3.1l-1.1,1c-.5.4-.9.9-1.4,1.3l-.7.7-.6.5-.6-.5-.3-.2-.3-.3c-.5-.4-1-.6-1.6-.7-.4,0-.7,0-1,.3-.8.5-1.2,1.5-1,2.5.3,1.7,1.6,3,3.3,3.4,1.6.3,3.4-.1,4.6-1.3,1.2-.9,2.2-2,3.4-3.1,2-2.1,4.5-3.8,7.2-4.9ZM117.9,93.8c1.5-1.3,3.2-2.4,5-3.1,1.6-.6,3.3-.7,4.9-.3,1,0,1.9,1,1.8,2,0,.4,0,.7,0,1.1-.2,1.1-.6,2.1-1.2,3.1-1,1.5-2.2,2.8-3.6,3.8-.9.8-2,1.4-3.2,1.6-.6.1-1.2.4-1.7.6-.8.4-1.3,1.3-1.1,2.2.1.9.8,1.6,1.7,1.7.6,0,1.1,0,1.7,0,.6-.1,1.2-.3,1.7-.6,3.2-1.6,6-4.1,8-7.1,1.1-1.6,1.7-3.4,1.9-5.4.4-3.3-1.8-6.4-5.2-7.1-2.7-.6-5.4-.3-7.9.7-2.6,1.2-5,2.8-7,4.9-2.8,2.8-13.4,16.9-16.5,27.4-.9,2.2-1.3,4.5-1.3,6.9,0,.5,0,1,0,1.5,0,.6.2,1.3.4,1.9.1.4.4.8.6,1.2.6.9,1.7,1.1,2.6.7,1-.5,1.3-1.6.9-2.6,0,0,0,0,0,0-.5-1.2-.7-2.6-.4-3.9.3-1.5.7-3,1.2-4.5,2.8-7.4,6.6-14.4,11.3-20.8,1.5-2.1,3.3-4.1,5.2-5.8ZM169,112.5c-1.1.4-2.2.9-3.2,1.4-.4.2-.8.5-1.3.7-.6-.7-1-1.3-1.6-1.9-1.5-1.9-4.2-2.6-6.4-1.5-1.6.7-3.1,1.6-4.4,2.8l-.9.7c0-.2-.2-.3-.2-.5-.8-2.1-3-3.4-5.2-2.9-2.3.3-4.5,1.2-6.2,2.8-1.4,1.3-2.7,2.7-4,4.1-.6.7-1.2,1.5-1.7,2.3-.4.6-.6,1.4-.4,2.1,0,.9.8,1.7,1.7,1.8,1,0,1.9-.5,2.2-1.5.2-.5.4-1,.8-1.5.8-1,1.7-1.9,2.5-2.7.7-.7,1.5-1.4,2.3-2,1.1-.8,2.5-1.3,3.9-1.2.2.7.4,1.4.7,2.1.5,1.6,2.2,2.5,3.8,2.1.2,0,.5-.2.7-.3.4-.2.7-.4,1-.7.5-.4,1-.9,1.5-1.3,1-.7,2-1.4,3-2,1.1-.6,1.5-.5,2.3.6.3.4.6.8.9,1.1,1.4,1.9,4,2.4,6,1.1.6-.3,1.2-.7,1.8-1,.4-.3.9-.5,1.4-.5.3,0,.7.5,1,.8.7.7,1.7.8,2.5.2.8-.5,1.1-1.5.8-2.3-1-2.1-2.7-3.7-5.3-2.9ZM269.6,100.8c-1.1,0-2,.9-2,2s.9,2,2,2,2-.9,2-2-.9-2-2-2Z"/>
  <path class="st0" d="M84.6,66.9c0-.4-.8-.2-.8.4s.7.6.3,1c-1.2.3-.4-1.8-.7-2.2-.2-.7-1.5.8-1.7.5s1-.9.7-1.3,0-1-.6-1.3c-.5-.2-1.1-.3-1.7-.3-.3,0-.3-.2-.8,0-.9.5-1.9.8-2.9,1-.6.2-1.2.3-1.9.2-.6-.2-1.1,0-1.5.4-.4.3-.9.8-1.4.8-.8,0-1,.3-1.1,1,0,1-.4,2-1.1,2.8-.2.4-.4.9-.5,1.3-.3,1.3-.4,2.6-.1,3.9.1,1.6-.5,3.8-.5,5.9,0,2.4.7,2.7.4,6.7-.5,5.1-.6,7.2.3,14.6,0,.1.2,5.9.7,5.8s.6-1.7,1-2.2.1,1.9.5,1.4c1.1-.9.3,1.7,0,8.6v2.2c0,1.5.1,2.3.7,1.8.4-.8.5-4.1.8-7.6,0-1,.3-1.3.4-1.2s0,1.3,0,3.2c0,2.4.6,1.5.8,1,.4-1.5.9-1.7,1-2.7,0-1.2.2-2.4.5-3.6.6-1.5.9-.2.8.5-.2,2.8-.7,7.7-.3,8s.7-.2.7-1.2c0-.1,0-.3,0-.4,0-.1.1-.3.2-.2s.1.2.2.3c.7.9,1.1-4.1,1.6-6.2.4-1.6,1-5.1,1.2-6.1s.8-1.5,1.1-.9c.1.4-.2,1.2.2,1.4,2.4,0,6-27.4,5.9-27.9,0-9.3-2.7-.3-2.7-9.7Z"/>
  <path class="st0" d="M81.6,135.8c-.3,0-.4-.7-.6-.9-.4-.5-.6-1.2-.5-1.8.1-.6,1.1-1.1.1-1.7.5-.4.7-2.4-.5-1.9-.2-.3.4-.7.6-1.2,0-.1,0-.7-1.4,0-.5.2-.8-1.2-1.1-1.8-.6-1.2-1.5-1.4-1.7-1.2-.2.4-.3.8-.4,1.2.1.3.6.2.2.7-.1.1-.4.1-.4.1-1-.2,0-1.4,0-1.6-.5-.6-1.2-1-1.9-1.1-.4,0-.9.3-1.3-.1-.2-.2-.9,0-1.2,0-.6.3-.8.8-2,.7-.4,0-.5.9-.8.8-.6-.2-1.2-.8-1.7.2-.6-.1-.9,0-.9.7,0,0-.3-.2-.5.3-.2.5.3.5,0,.9-.3.3.2,1-.9.9-.2,0-.7,0-.4.4.4.8.4,1,.2.9-.8-.5-1.2-.5-1.5,0-.3.6-.5,1.3-.7,2,0,.2-.5,1.9.6,2.6.5.3.4,1.1.7,1.5.6.6,1,1.3,1.1,2.1,0,.5.4.9.9.9,0,0,0,0,.1,0,.6,0,1-.7,1.7-.7,1.3,0,2,1.8,3.6,1.2.4,1.3,1.4,1,2.1.7.4-.2,1-.3.9.4,0,.2,0,.6.2.6.5.2.7.5,1.3.2.1,0,0-.2,0-.4,0,0-.3-.6,0-.8s1.5.5,1.2.8-.4.2-.4.4c0,0,.4.7,1.4.2.2-.1-.2-.8,0-1s1.8-.1,2.4-.9-.8-2.1-.5-2.6c.3-.5.9-.9,1.5-.9.2,0,.7,1,1.1.8s.6-1.5.2-1.9c-.1-.2-.1,0-.4,0Z"/>
</svg>