<?xml version="1.0" encoding="UTF-8"?>
<svg width="756" height="420" id="Layer_1" xmlns="http://www.w3.org/2000/svg" version="1.1" viewBox="0 0 378 210">
  <defs>
    <style>
      .st0 {
        fill: #fff;
        fill-rule: evenodd;
      }
    </style>
  </defs>
  <path class="st0" d="M142.1,123.3c4.7,0,6.4-3.2,6.4-7.8,0-1.1-.2-1.7-1.1-1.7-1.4,0-1,2.8-3.4,2.8s-2.7-1.5-5.9-7.3c-1.5-2.7-2.3-4.2-3.3-5.1-1.4-1.1-2.1-1.1-2.1-1.8s1.1-1.2,5.4-4.8c5.1-4.3,5.4-4.8,7.8-5.4,2.1-.6,2.9-.7,2.9-3s-1.4-2.5-6.5-2.5-8.3.5-8.3,3,.6,1.8,2.1,2c1,.2,1.5.3,1.5.7,0,.7-1.3,1.6-4.9,4.6-5.7,4.7-6.2,5.4-7.5,5.4-1.8,0-1.5-.2-1.5-4.6s-.1-4.9,1.7-5.7c2-.8,2.9-1,2.9-3.1s-2-2.4-7.5-2.4-9,.5-9,3,1.2,2.2,3,2.6c1.6.5,2,.9,2.1,4.8.2,4.7.2,10,0,15.8-.2,3.7-.6,4.2-2.3,4.9-2,.8-2.8,1.3-2.8,2.8,0,3,2,2.5,8.7,2.5s7.1,0,7-2.8c-.1-1.5-.9-1.6-2.5-2.4-1.8-.8-1.7-.9-1.8-5.7,0-5.2-.5-5.5,1.9-5.5s3.9,1.4,6.3,6.3c3.9,8.2,6.3,10.6,10.5,10.5h0ZM108.2,138c0,6.1-4.9,11-11,11s-11-4.9-11-11,4.9-11,11-11h0c-6.1,0-11-5-11-11s4.9-11,11-11c-6.1,0-11-4.9-11-11s4.9-11,11-11c-6.1,0-11-4.9-11-11s4.9-11,11-11,11,4.9,11,11h0c0-6.1,4.9-11,11-11s11,4.9,11,11h0c0-6.1,4.9-11,11-11s11,4.9,11,11c0-6.1,4.9-11,11-11s11,4.9,11,11-4.9,11-11,11c6.1,0,11,4.9,11,11s-4.9,11-11,11h0s0,0,0,0c6.1,0,11,4.9,11,11s-4.9,11-11,11c6.1,0,11,4.9,11,11s-4.9,11-11,11-11-4.9-11-11h0s0,0,0,0c0,6.1-4.9,11-11,11s-11-4.9-11-11h0s0,0,0,0h0c0,6.1-4.9,11-11,11s-11-4.9-11-11h0s0,0,0,0h0Z"/>
  <path class="st0" d="M283.5,120.3c0,.9.5,1.4,1.4,1.4s2-1,2-2.2-.4-.8-1.2-.8c-1.4,0-2.1.6-2.1,1.6ZM283.7,124.1c-2.5,0-3.5-1.5-3.5-3.4s1.4-3.5,4-3.5,1.9.2,2.3.2.4-.1.4-1.1c0-1.3-.6-1.9-1.9-1.9s-1.2.3-1.4,1.1c-.2.7-.6,1.2-1.5,1.2s-1.8-.4-1.8-1.5.5-1.6,1.3-2.1c1-.7,2.4-1.1,4.1-1.1,3.1,0,4.5,1.3,4.5,3.8,0,1.6-.2,3.8-.2,4.5s.3.8.6.8c.3,0,.5-.1.7-.1.4,0,.5.3.5.8,0,.9-.8,2.3-2.4,2.3s-1.4-.3-1.9-.9c-.4-.5-.4-.9-.7-.9s-.4.4-.8.9c-.4.5-1.1,1-2.4,1ZM273.6,109.4c0-1,.8-1.8,2.2-1.8s2.3.8,2.3,1.9-.7,1.7-2.2,1.7-2.4-.6-2.4-1.7ZM276,123.9c-2.4,0-3.2.1-3.2-1.3s.1-.9.8-1.2c.6-.3.7-.6.8-1.5,0-1,0-2.7,0-4s-.1-.7-.5-.7c-.9,0-1.2-.2-1.2-.7s.4-1.1,1.1-1.6c.8-.6,1.4-.8,2.2-.8,1.4,0,1.9.5,1.9,1.6s-.3,2-.3,3.2c0,.8,0,1.7,0,3,0,.7,0,1,.6,1.3.5.3.8.6.8,1.3,0,1-.6,1.3-2.9,1.3h0ZM262,118.2c.2,1.8,1,3,2.7,2.8,1.6-.2,2.3-1.3,2.1-3.2-.2-1.8-1.1-3.2-2.7-3-1.6.1-2.2,1.5-2,3.4h0ZM269.4,124c-.8,0-1.6-.3-2.1-1-.4-.6-.3-1-.7-1s-.5.5-.9.9c-.6.6-1.4,1-2.6,1-3.2,0-4.7-2.5-4.7-6s2.2-5.9,5.1-5.9,2.2.4,2.7.9c.5.5.7.8.9.8s.3-.3.3-1.2c0-1.8,0-2.1-.9-2.1s-1.6,0-1.6-.7.5-1.1,1.2-1.6c.7-.5,1.4-.8,2.3-.8s2,.6,2,2.2c0,3.1-.7,7.9-.7,10.5s.3,1,.7,1,.5-.1.7-.1c.4,0,.6.3.6.8,0,.8-.8,2.3-2.3,2.3ZM249.3,116.8c0,.3.2.2,1.6.2,2.7,0,2.9.1,2.9-.4,0-1.2-1-2.2-2.4-2.2s-2.1,1-2.1,2.4h0ZM251.8,124.2c-3.5,0-5.8-2.5-5.8-5.9s2-6.3,5.9-6.3,5.2,2,5.2,5.2-.3,1.7-2,1.7h-5.4c-.3,0-.4.1-.4.4,0,1,1.5,2,3.5,2s2.1-.3,2.6-.6c.3-.1.5-.3.8-.3.4,0,.5.6.3,1.1-.4,1.6-2.2,2.7-4.6,2.7h0ZM228.4,123.8c-2.6,0-3.1-.2-3.1-1.3s.1-.8.9-1.3c.7-.5.8-.8.8-1.7v-3.5c0-.6-.2-.7-.7-.7-.9,0-1.3-.1-1.3-.8s.3-1,1.2-1.6c.7-.5,1.3-.8,2-.8,1,0,1.5.4,1.5,1.4s0,.8.2.8.3-.4.9-1.1c.5-.6,1.4-1.2,2.8-1.2s2.2.5,2.7,1.1c.5.6.5,1.2.8,1.2.3,0,.3-.5,1.1-1.3.7-.7,1.4-1,2.5-1,2.1,0,3.6,1.4,3.5,3.4,0,2.1-.1,2.9-.1,4.3s.1,1.3.7,1.6c.7.4.8.8.8,1.3,0,1-.4,1.1-3.2,1.1s-2.7-.1-2.7-1.3.2-.9.7-1.2c.5-.3.6-.6.6-1.5v-3c0-1.2-.5-1.9-1.5-1.9s-2.1,1.1-2.2,2.8c0,.5,0,1.4,0,2.2s0,1.1.5,1.4c.5.3.7.7.7,1.3,0,1-.4,1.1-3,1.1s-2.7-.1-2.7-1.3.2-.9.8-1.3c.5-.3.6-.7.6-1.8v-2.8c0-1.1-.6-1.8-1.5-1.8-1.7,0-2.3,1.5-2.3,3.2v2c0,.7,0,.9.4,1.3.5.4.7.6.7,1.2,0,1.1-.4,1.3-2.9,1.3h0ZM215.8,118.2c.3,2,1.3,3.4,3,3.2,1.4-.1,2.2-1.3,1.9-3.1-.3-2.1-1.2-3.6-3-3.4-1.5.1-2.2,1.4-2,3.4ZM218.2,124.2c-3.9,0-5.8-2.6-5.8-6s2.2-6.1,5.9-6.1c3.8,0,5.7,2.6,5.7,6.1s-2.2,6-5.8,6h0ZM208.6,124c-1.9,0-2.8-1-4.3-4.2-.9-1.9-1.1-2.4-2.2-2.4s-.7.2-.7,1.8c0,1.5,0,1.6.7,2,.6.4.8.5.9,1.2,0,1.4-.5,1.5-3,1.5s-3.8.2-3.8-1.3.2-1,1-1.4c.7-.4.9-.6,1-2.1.1-2,0-3.8,0-5.5,0-1.6-.3-1.8-.9-2-.7-.2-1.1-.4-1.1-1.3s.6-1.6,3.9-1.6,3.2,0,3.2,1.2-.3,1.1-1.1,1.6c-.7.4-.7.5-.7,2.1s-.1,1.7.6,1.7c.5,0,.7-.3,2.7-2,1.3-1.1,1.7-1.4,1.7-1.7s-.2-.3-.6-.4c-.6-.1-.8-.4-.8-1,0-1.2.6-1.6,3.6-1.6s2.8,0,2.8,1.3-.3,1.3-1.2,1.6c-.9.3-1.1.5-2.8,2-1.4,1.2-1.8,1.4-1.8,1.7s.3.4.7.7c.4.3.7.9,1.3,1.9,1,2,1.3,2.5,1.9,2.5s.6-1.1,1.3-1.1.6.4.6,1c0,2.1-.6,3.6-2.8,3.6h0ZM250,101.1c-2.9,0-3.7,0-3.7-1.1s.3-1,.9-1.4c.5-.2.7-.5.8-1.4,0-1.1,0-2.7,0-3.9s-.3-.7-.8-.7-1.4,0-1.4-.7.4-1.2,1.1-1.7c.6-.4,1.3-.8,2-.8s1.3.4,1.3,1.3-.1.9.2.9.3-.3.8-1.1c.5-.7,1.2-1.3,2.4-1.3s2.7,1.2,2.7,2.9c0,1.4-.6,2.2-1.9,2.2s-1-.3-1.2-.9c-.2-.7-.4-1.2-.9-1.2-1,0-1.4,1.2-1.4,2.1,0,1.1,0,1.6,0,2.7,0,.9.1,1.1,1,1.4,1,.3,1.4.5,1.4,1.4s-.7,1.3-3.5,1.3h0ZM241.3,101.3c-2.4,0-3.9-1.5-3.9-3.7s.1-2.5.2-4c0-1.3,0-1.2-.9-1.2s-1.2-.3-1.2-1c0-1.3.7-1,2.4-1.9,1.2-.6,1.7-1.5,2.5-1.5s.7.2.7,1,.1.7,1.6.7,2.1,0,2.1.8,0,.6,0,1.1c0,1-.6.9-2.6.9s-1.2,0-1.2,1.6,0,2.1,0,2.8.5,1.5,1.6,1.5,1.5-.4,2-.4.5.2.5.7c0,1.3-1.3,2.6-3.4,2.6h0ZM227.2,97.5c0,.9.5,1.4,1.4,1.4s2-1,2-2.2-.4-.8-1.2-.8c-1.4,0-2.1.6-2.1,1.6ZM227.4,101.3c-2.5,0-3.5-1.5-3.5-3.4s1.4-3.5,4-3.5,1.9.2,2.3.2.4-.1.4-1.1c0-1.3-.6-1.9-1.9-1.9s-1.2.3-1.4,1.1c-.2.7-.6,1.2-1.5,1.2s-1.8-.4-1.8-1.5.5-1.6,1.3-2.1c1-.7,2.4-1.1,4.1-1.1,3.1,0,4.5,1.3,4.5,3.8,0,1.6-.2,3.8-.2,4.5s.3.8.6.8c.3,0,.5-.1.7-.1.4,0,.5.3.5.8,0,.9-.8,2.3-2.4,2.3s-1.4-.3-1.9-.9c-.4-.5-.4-.9-.7-.9s-.4.4-.8.9c-.4.5-1.1,1-2.4,1h0ZM214.7,94c0,.3.2.2,1.6.2,2.7,0,2.9.1,2.9-.4,0-1.2-1-2.2-2.4-2.2s-2.1,1-2.1,2.4h0ZM217.3,101.4c-3.5,0-5.8-2.5-5.8-5.9s2-6.3,5.9-6.3,5.2,2,5.2,5.2-.3,1.7-2,1.7h-5.4c-.3,0-.4.1-.4.4,0,1,1.5,2,3.5,2s2.1-.3,2.6-.6c.3-.1.5-.3.8-.3.4,0,.5.6.3,1.1-.4,1.6-2.2,2.7-4.6,2.7h0ZM202.9,101.1c-3.2,0-3.9-.1-3.9-1.3s.3-1.1,1.1-1.6c.8-.4,1.1-.6,1.1-1.8v-6.8c0-.7,0-.8-1.2-.8s-1.1,0-1.4.9c-.6,1.8-1,2.4-2.1,2.4-.8,0-1.6-.4-1.6-1.4s.2-1.3.5-2.4c.7-2.3,1.2-2.7,2.2-2.7s1.3.4,2.5.4h6c1.2,0,1.5-.4,2.4-.4s1.6.5,2.2,2.6c.3,1.1.5,1.9.5,2.4,0,1-.7,1.5-1.5,1.5s-1.6-.8-2.2-2.5c-.3-.9-.2-.9-1.7-.9s-1.1.1-1.1.8v6.6c0,1.2.2,1.4.8,1.8.7.3,1.2.5,1.2,1.5,0,1.4-.8,1.5-4,1.5h0Z"/>
</svg>