<?xml version="1.0" encoding="UTF-8"?>
<svg width="756" height="420" id="Layer_1" xmlns="http://www.w3.org/2000/svg" version="1.1" viewBox="0 0 378 210">
  <defs>
    <style>
      .st0 {
        fill: #D6D6D6;
      }
    </style>
  </defs>
  <g id="Warstwa_2">
    <path class="st0" d="M81.8,134.1c-.4.8-1,1.4-1.7,1.9,1.1.7,2.5.8,3.5.6,1.4-.3,2.4-1.2,3.3-2.5-1.6,1.6-3.7,1.6-5.1,0h0Z"/>
    <path class="st0" d="M81.2,134.1c.5-.8.8-1.9.8-3,0-3.5-3.4-4.9-6.2-3.3-1.9,1-1.7,4.5.4,5.7,0,0,.8.5.9.4,1.1-.5,1.6-1.4,1.6-1.4-1.8-1.2-2.3-2.4-1.4-3,1.4-.8,2.4.6,2,2.9-.3,1.1-1.4,1.7-2.4,1.9-1.2.2-3.1-.4-4.4.3-.5.3-1.1,1.1-1.1,1.1,2-1.4,3.3.3,5.2.5.8,0,2.2,0,2.8-.4.7-.5,1.4-1.1,1.8-1.8h0Z"/>
    <path class="st0" d="M76,111c.5-.2.8-.2.9,0,.4.2.4.6.8.8h.2c0,.2,0,.3,0,.4-.2.5-.3.5-.3.7,0,.2.6.3.6.3h.2c.3,0,.6,0,.6-.3s0-.2-.3-.7c0-.2,0-.3,0-.3,0,0,.2,0,.3,0,.4-.2.3-.6.8-.8.3,0,.5,0,.9,0,.5.2.9.2,1.1,0s0-.7,0-.8c-.7-.5-.8-1.7-1.4-1.4-.4.3-3.6.3-4.1,0-.5-.3-.7.8-1.4,1.4-.2.2-.3.7,0,.8.2.2.6.2,1.1,0h0Z"/>
    <path class="st0" d="M82.1,101.5c-.8.7-1.6,2.2-1.4,2.5,0,0,1,.8,3.1,1.2,2.8.4,4.1-.8,4.1-.8-2,.4-5.2,0-6.4-1,.3-.3.6-.6.9-.9,1.4-1,3.3-1.4,4.6-.2.7.6,1.1,1.4,1.5,2.1h0c-.3-3.8-4.1-5.3-6.7-2.9h0Z"/>
    <path class="st0" d="M80.1,98s.8,4.1.8,4.3c0,.3.9-2.9,3.2-3,1.4,0,5.5.6,5,5.1,0,.5,1.4.3,1.5.2s1.4-1.7-.6-5.8c-6.7-3.5-7.7-1.9-10-.8h0Z"/>
    <path class="st0" d="M75,117.1h0c0,.3,1.5,1,3.4,1s3.3-.7,3.3-1,0,0,0,0h-6.7Z"/>
    <path class="st0" d="M77.7,118.6c-1.2,0-2.5,1.5-2.5,1.5-.4,1.1,1.1,0,2.4-.3,1.6-.3,2.4.2,3.1.4.5.3.3-1.8-3-1.6Z"/>
    <path class="st0" d="M103.1,96.1c0-.3,1,.5,2.3-.2.9-.5,1-2.6,1.2-4,0-.7-3-2.1-3.7-2.1-1.4,0-1.7,1.5-2.2,1.2-.4-.3.5-2.1-.3-2.3-1.5-.3-3.2,1.2-3.5,1.2l1-2.3c.5-1.4.2-2-.8-2.9,0,0,.2-.3,0-.3.8-.8.6-1.9-.3-2.7-.8-.8-2.2-.6-3,0,0,0-.3-1.4-.3-1.5-.8-1.1-1.6-.8-2.4-.5-.3-.4-.8-.7-.8-.7,0,0-.6-.2-1.3-.2,0-2.1,0-3.9-1.9-5-1.8-1-2.5-.5-3.6,0-.8.3-1,1.2-1.5,1.7-.7-.8-1.9-1.4-3.4-1.4s-2.4.4-3.1,1.2c-.3,0-.4.2-.7.3-.7-.3-.9-1.6-1.7-1.8-.3,0-1.4-.8-3.6.3-1.7.8-1.8,2.7-1.9,4.8-.8,0-1.3.2-1.3.2,0,0-.3.3-.8.7-.8-.3-1.7-.6-2.4.5,0,0-.3,1.4-.3,1.5-.8-.6-2.2-.8-3,0-.9.8-1.1,1.9-.3,2.7,0,0,.2.3,0,.3-.9.9-1.3,1.6-.8,2.9l1,2.3c-.3,0-2.1-1.5-3.5-1.2-.8.2,0,2-.3,2.3-.5.3-.8-1.2-2.2-1.2s-3.7,1.4-3.6,2.1c0,1.4.2,3.5,1.1,4,1.3.7,2.1,0,2.3.2.7,1.6-1.7.3-2.5,1.4-1.1,1.5,3,4.2,3.8,4.4-.7,2.6.3,4.6,2.2,5.1-3.4,9.1-3.1,8.9-3.1,10.2s.9,2.5,2.4,2.9c.8.2,2,.2,2.9-.2.4,0,4.1-1.6,4.7-2.5,2.8,6.2,7.6,9.3,14.7,9.5h0s10.7,0,14.9-9c-.2.4,4.1,2.5,7.3,2.3,1.4-.3,2.4-1.1,2.4-2.8,0-1.4.3-1.1-3.1-10.2,1.9-.5,3-2.5,2.2-5.1.8,0,4.8-2.9,3.8-4.4-.8-1.1-3.2.2-2.5-1.4h0l-.2-.3ZM100.1,100.7c.2-.3-.7-3.7-4.6-4.5-4.8-.9-3.5-3.8-3.5-3.8.2.3.5,2.1,4.2,2.5,4,.4,4.1,5.5,3.8,5.7h0ZM96.8,93.7c.3-.5-2.3-4.1-9.5-3.8-6.7.3-7.2-3.7-6.9-4.5-.2.7.7,3.5,7.7,2.7,7.3-.8,9.1,5.1,8.9,5.6h0ZM84.6,80.6c3,1.6,2.2,4.1,8.4,5,0,0-2.5,0-4-.6-3.7-1.5-6.3-3.6-9.2-2.4v-1c.2-1.7,3-1.9,4.6-.9h0ZM71.8,80.6c1.7-1,4.5-.8,4.7.9v1c-3-1.3-5.5.8-9.3,2.4-1.4.6-4,.6-4,.6,6.2-.9,5.4-3.3,8.4-5h0ZM68.5,88.2c7,.8,7.8-2,7.7-2.7.2.7-.3,4.8-6.9,4.5-7.3-.3-9.9,3.3-9.5,3.8-.3-.5,1.6-6.4,8.9-5.6h0ZM61.3,109.2c.3,1.4.5,2.8.8,4.1-.7-.2-1.4-.2-2,0,.3-1.2.7-2.5,1.2-4.1ZM60.1,95c3.7-.4,4.1-2.2,4.2-2.5,0,0,1,3.5-3.5,3.8-4,.3-4.8,4.2-4.6,4.5-.2-.3-.2-5.3,3.8-5.7h0ZM53.1,93.9c-1.6-.7-1.7-1.4-1.7-1.4,0,0,.7,0,2.3.7s1.6,1.1,1.6,1.1c0,0-.7.3-2.3-.4h0ZM54.8,101.9s1.9.9,4.6,0c2.4-.9,4.2-3.1,5.1-6-.3,3.1-1.4,7.3-5.7,8.2-2.7.5-4.1-2.1-4.1-2.1h0ZM57.4,118c-1.1-.2-2.4,0-2.4-1.4,0-.2,0-.3.2-.5,1.1,0,2.1-.2,3,.5,1.2,1-.2,1.4-.8,1.4h0ZM59.1,115.8c-.5-.8-1.5-1.3-3.4-1.3.8-2.2,2.2-5.2,3-7.6.3,0,.7-.2,1-.3-.3,2.6-.6,7.4-.6,8.8v.3h0ZM62.4,116.3c-1,.2-2.4.5-2.7-.6v-.8c.8-.3,1.9,0,2.7.7.2,0,.3.2.3.3,0,.2.2.3.2.5-.2,0-.4,0-.7,0h.2ZM91.8,116.1c-2.4,6-9.5,8.5-13.4,8.5h0c-4.6.2-11.3-2.6-13.7-8.5-1.4-4.6-1.5-9.5-1.4-11.6.5,0,1.4.3,2-.5.8-.8,1.3-2.3,2.4-2.6,1.8-.5,3.6.2,4.6,1.8-1.9.6-3.9,1.1-5.8.8,0,0,.8,1.4,3,1.1,1.2,0,2.6-.5,3.2-1-.3,1-.8,1.9-1,2.1.3-.2,1.5-.5,2.5-1,0,.3-.3,4.5-.2,4.3.9-1.4,1.4-4.9,1.4-4.9.3-3,.5-6.2-1.5-7.7-.9-.8-3.8-.4-9.5,1.8,0,0,0-.2,0,0,0,0,1.3-6.5,2.8-6.2,8.4,1.1,10.2-3.4,10.8-4.6.5,1.3,2.4,5.7,10.8,4.6,1.5-.2,2.8,6.2,2.8,6.2,0,0,2.6,6.6,0,17.6h0ZM65.8,102.9c0-3.5,3.5-3.7,4.9-3.5.8,0,2.1.8,2.7,2.6.2.4,0,.9,0,1.5h0c-.3-2-1.9-3.1-3.5-3.3-1.9,0-3.5,1.2-4.1,2.7h0ZM94,116.3h-.3c0-.3.2-.6.3-.8.8-.5,1.9-.9,2.6-.6v.8c-.3,1.1-1.6.8-2.7.6h0ZM94.5,113.1c.3-1.1.4-2.4.6-3.6.4,1.4.8,2.7,1.1,3.8-.5-.2-1.2-.3-1.7-.2h0ZM101.4,116.7c0,1.4-1.4,1.2-2.4,1.4-.6,0-1.9-.3-.8-1.4.8-.7,1.9-.5,3-.5,0,.2,0,.3.2.5h0ZM100.6,114.6c-1.9,0-2.9.5-3.4,1.3v-.3c0-.3-.6-8.5-.6-8.8.3.2.7.2,1,.3,0,0,2.8,7.2,3,7.6h0ZM97.7,104c-4.2-.8-5.4-5.1-5.7-8.2.8,2.8,2.6,5.1,5.1,6,2.7,1,4.6,0,4.6,0,0,0-1.4,2.6-4.1,2.1h0ZM101,94.3s0-.4,1.6-1.1,2.3-.7,2.3-.7c0,0,0,.7-1.7,1.4-1.6.7-2.3.4-2.3.4h0Z"/>
    <path class="st0" d="M81.5,114.5c-.9-1.1-1.9-.8-2.4-.8h-1.9c-.5,0-1.4-.3-2.4.8-.9,1-1.9.4-1.8,1,0,.4,1.3.8,1.7.8,2.7-.5,4.4-.3,6.8,0,.3,0,1.5-.3,1.7-.8.2-.6-.8,0-1.8-1Z"/>
    <path class="st0" d="M62,126.9s1-.8,1-2.3h0c0-.3,0-.6-.2-.8h.9c1.5-.3,2-1.4,2-1.4,0,0-.2-.2-.5-.4-.2,0-.3-.2-.5-.3-.7-.2-1.4-.2-1.9,0-.3.2-.7.4-1,.8,0,0-.3.3-.3.3h0c-.3.4-.4.8-.5,1.2-.2.7,0,1.4.3,1.9,0,.2.3.3.3.5.3.3.5.4.5.4h-.2Z"/>
    <path class="st0" d="M59.3,124.2s1.1-.6,1.2-2.2h0c0-.4,0-.6,0-.8.3,0,.4,0,.7,0h.2c1.6-.2,2.2-1.3,2.2-1.3,0,0-.2-.2-.5-.4-.2,0-.3-.2-.5-.3-.7-.3-1.4-.3-1.9,0-.4,0-.8.3-1,.6l-.3.3h0c-.3.4-.5.8-.6,1.2-.2.7-.2,1.3,0,1.9,0,.2.2.3.3.5.3.3.4.5.4.5h0Z"/>
    <path class="st0" d="M65.1,129.4s.9-.8.8-2.4h0c0-.3-.2-.6-.3-.8h.8c1.5-.4,1.9-1.6,1.9-1.6,0,0-.2-.2-.6-.3-.2,0-.3-.2-.6-.2-.7,0-1.4,0-1.9.3-.3.2-.7.5-.9.8,0,0-.2.3-.3.3h0c-.2.4-.3.8-.3,1.3,0,.7,0,1.3.5,1.9,0,.2.3.3.3.4.3.3.5.4.5.4h0v-.3Z"/>
    <path class="st0" d="M68.8,131.4s.8-.9.4-2.4h0c0-.3-.2-.5-.3-.8.3,0,.5,0,.7-.2h0c1.4-.7,1.6-1.9,1.6-1.9,0,0-.2,0-.6-.3-.2,0-.3,0-.6,0-.7,0-1.4.2-1.9.6-.3.3-.6.6-.8.9l-.2.3h0c-.2.5-.3.8-.2,1.3,0,.7.3,1.3.8,1.8.2.2.3.3.4.3.3.3.6.3.6.3h0Z"/>
    <path class="st0" d="M73.5,132.9s.4-1.2-.5-2.4h0c-.2-.3-.3-.4-.5-.6.2,0,.4-.3.6-.4h0c1.1-1.3.8-2.4.8-2.4h-.7c-.2,0-.3,0-.6,0-.7.3-1.2.7-1.5,1.2-.2.3-.3.8-.4,1.2v.4h0c0,.5,0,.9.3,1.4.3.6.8,1.1,1.4,1.4.2,0,.4.2.5.2.4,0,.7,0,.7,0h0Z"/>
    <path class="st0" d="M94.7,126.9s-1-.8-1-2.3h0c0-.3,0-.6.2-.8h-.9c-1.5-.3-2-1.4-2-1.4,0,0,.2-.2.5-.4.2,0,.3-.2.5-.3.7-.2,1.4-.2,1.9,0,.3.2.7.4,1,.8,0,0,.3.3.3.3h0c.3.4.4.8.5,1.2.2.7,0,1.4-.3,1.9,0,.2-.3.3-.3.5-.3.3-.5.4-.5.4h.2Z"/>
    <path class="st0" d="M97.4,124.2s-1.1-.6-1.2-2.2h0c0-.4,0-.6,0-.8-.3,0-.4,0-.8,0h0c-1.6-.2-2.2-1.3-2.2-1.3,0,0,.2-.2.5-.4.2,0,.3-.2.5-.3.7-.3,1.3-.3,1.9,0,.4,0,.8.3,1,.6l.3.3h0c.3.4.5.8.6,1.2.2.7.2,1.3,0,1.9,0,.2-.2.3-.3.5-.3.3-.4.5-.4.5h0Z"/>
    <path class="st0" d="M91.6,129.4s-.9-.8-.8-2.4h0c0-.3.2-.6.3-.8h-.8c-1.5-.4-1.9-1.6-1.9-1.6,0,0,.2-.2.6-.3.2,0,.3-.2.6-.2.7,0,1.4,0,1.9.3.3.2.7.5.9.8,0,0,.2.3.3.3h0c.2.4.3.8.3,1.3,0,.7,0,1.3-.5,1.9,0,.2-.3.3-.3.4-.3.3-.5.4-.5.4h0v-.3Z"/>
    <path class="st0" d="M87.9,131.4s-.8-.9-.4-2.4h0c0-.3.2-.5.3-.8-.3,0-.5,0-.7-.2h0c-1.4-.7-1.6-1.9-1.6-1.9,0,0,.2,0,.6-.3.2,0,.3,0,.6,0,.7,0,1.4.2,1.9.6.3.3.6.6.8.9l.2.3h0c.2.5.3.8.2,1.3,0,.7-.3,1.3-.8,1.8-.2.2-.3.3-.4.3-.3.3-.6.3-.6.3h0Z"/>
    <path class="st0" d="M83.1,132.9s-.4-1.2.5-2.4h0c.2-.3.3-.4.5-.6-.2,0-.4-.3-.6-.4h0c-1.1-1.3-.8-2.4-.8-2.4h.7c.2,0,.3,0,.6,0,.7.3,1.2.7,1.5,1.2.2.3.3.8.4,1.2v.4h0c0,.5,0,.9-.3,1.4-.3.6-.8,1.1-1.4,1.4-.2,0-.4.2-.5.2-.4,0-.7,0-.7,0h0Z"/>
    <path class="st0" d="M122.8,91.8h-.3c0-1,.4-4.1.4-5.4s.3-.2.3,0c0,.6,1,.6,1.6.6h11.1c1.4,0,2,0,2.2-.7,0-.2.3-.2.3,0,0,1.2-.3,4.6-.3,5.5s-.3,0-.3,0c-.4-3-1.9-4.2-4.1-4.2s-1.8.3-1.8,1.8v12.9c0,1.6.3,1.9,2.4,1.9s0,.3,0,.3h-7.7c-1,0,0-.3,0-.3,2.1,0,2.5-.3,2.5-1.9v-13c0-1.4-.3-1.7-1.8-1.7-2.4,0-3.7,1.4-4.6,4.2h0Z"/>
    <path class="st0" d="M156.3,100.2c-.2,1.1-.3,2.7-.3,3.9s0,.4-.4.4h-12.2c0,0,0-.3,0-.3,1.9,0,2.1-.3,2.1-1.9v-13c0-1.6-.3-1.9-2.1-1.9s0-.3,0-.3h11.7q.3,0,.3.3v3.6s-.3.2-.3,0c-.4-2.1-1.8-3.2-3.9-3.2h-1.1c-1.4,0-1.9.4-1.9,1.6v5.7h2.7c2.1,0,3.1-.8,3.1-2.1s.3,0,.3,0v2.4c0,.8,0,1.8,0,2.8s-.3,0-.3,0c0-1.6-1-2.4-3.1-2.4h-2.7v6.4c0,1.3.4,1.7,1.6,1.7h1.4c2.5,0,4.1-1.2,4.8-3.6,0,0,.3,0,.3,0h-.3Z"/>
    <path class="st0" d="M180.4,104.5c-1.1,0-2.4,0-3.5,0s-2,0-3.1,0-.2-.3,0-.3c1.7,0,1.9-.5,1.1-2.2l-2.1-4.3h-6.8l-1.4,3c-1,2.3,0,3.5,2.3,3.5s.2.3,0,.3c-1.1,0-1.9,0-3.3,0s-2,0-3.3,0-.2-.3,0-.3c1.5,0,2.2-.8,3.5-3.8l6.1-13.6c0,0,.4,0,.5,0l6.9,13.9c1.4,2.7,2,3.5,3,3.5s.2.3,0,.3h0v-.2ZM172.4,96.9l-3.2-6.6-3,6.6h6.2Z"/>
    <path class="st0" d="M182.6,91.8h-.3c0-1,.4-4.1.4-5.4s.3-.2.3,0c0,.6,1,.6,1.6.6h11.1c1.4,0,2,0,2.2-.7,0-.2.3-.2.3,0,0,1.2-.3,4.6-.3,5.5s-.3,0-.3,0c-.4-3-1.9-4.2-4.1-4.2s-1.8.3-1.8,1.8v12.9c0,1.6.3,1.9,2.4,1.9s0,.3,0,.3h-7.7c-1,0,0-.3,0-.3,2.1,0,2.5-.3,2.5-1.9v-13c0-1.4-.3-1.7-1.8-1.7-2.4,0-3.7,1.4-4.6,4.2h0Z"/>
    <path class="st0" d="M221.6,104.5h-4.6c-.8,0-3.4-3.2-6.7-8.5h-2.4v6.2c0,1.6.3,1.9,2.1,1.9s0,.3,0,.3h-7c-.9,0,0-.3,0-.3,1.9,0,2.2-.3,2.2-1.9v-13c0-1.6-.3-1.9-2.1-1.9s0-.3,0-.3h3.5c1.4,0,2.9-.2,4.1-.2,3.3,0,5.1,1.4,5.1,3.6s-1.4,3.8-3.1,4.7c4.5,6.6,6.7,8.9,8.9,8.9s0,.3,0,.3h0ZM209.6,95.3c2.4,0,3.4-1.2,3.4-3.9s-1.2-4.1-3-4.1-2,.4-2,1.9v5.9c.5,0,1.2,0,1.6,0h0Z"/>
    <path class="st0" d="M239.5,94.6c2.1,1.4,4.2,2.6,4.2,5.3s-2.4,5-6,5-3.5-.5-4.3-1.1c-.2,0-.3-.3-.3-.5l-.2-4.3c0-.2.3-.2.3,0,.9,2.4,2.4,5.3,5.1,5.3s2.9-.7,2.9-2.9-2-4-4.1-5.2c-1.9-1.3-4-2.4-4-5.1s3-4.5,5.7-4.5,2.6.3,3.5.7c.3.2.4.3.4.5v3.8c0,0-.2.2-.3,0-.3-1.1-1.4-4.5-4.3-4.5s-2.8,1-2.8,2.7,1.9,3.4,3.9,4.6h0Z"/>
    <path class="st0" d="M249.5,91.8h-.3c0-1,.4-4.1.4-5.4s.3-.2.3,0c0,.6,1,.6,1.6.6h11.1c1.4,0,2,0,2.2-.7,0-.2.3-.2.3,0,0,1.2-.3,4.6-.3,5.5s-.3,0-.3,0c-.4-3-1.9-4.2-4.1-4.2s-1.8.3-1.8,1.8v12.9c0,1.6.3,1.9,2.4,1.9s0,.3,0,.3h-7.7c-1,0,0-.3,0-.3,2.1,0,2.5-.3,2.5-1.9v-13c0-1.4-.3-1.7-1.8-1.7-2.4,0-3.7,1.4-4.6,4.2h0Z"/>
    <path class="st0" d="M286.9,104.5c-1.1,0-2.4,0-3.5,0s-2,0-3.1,0-.2-.3,0-.3c1.7,0,1.9-.5,1.1-2.2l-2.1-4.3h-6.8l-1.4,3c-1,2.3,0,3.5,2.3,3.5s.2.3,0,.3c-1.1,0-1.9,0-3.3,0s-2,0-3.3,0-.2-.3,0-.3c1.5,0,2.2-.8,3.5-3.8l6.1-13.6c0,0,.4,0,.5,0l6.9,13.9c1.4,2.7,2,3.5,3,3.5s.2.3,0,.3h0v-.2ZM278.9,96.9l-3.2-6.6-3,6.6h6.2Z"/>
    <path class="st0" d="M309.3,104.5h-4.6c-.8,0-3.4-3.2-6.7-8.5h-2.4v6.2c0,1.6.3,1.9,2.1,1.9s0,.3,0,.3h-7c-.9,0,0-.3,0-.3,1.9,0,2.2-.3,2.2-1.9v-13c0-1.6-.3-1.9-2.1-1.9s0-.3,0-.3h3.5c1.4,0,2.9-.2,4.1-.2,3.3,0,5.1,1.4,5.1,3.6s-1.4,3.8-3.1,4.7c4.5,6.6,6.7,8.9,8.9,8.9s0,.3,0,.3h0ZM297.3,95.3c2.4,0,3.4-1.2,3.4-3.9s-1.2-4.1-3-4.1-2,.4-2,1.9v5.9c.5,0,1.2,0,1.6,0h0Z"/>
    <path class="st0" d="M327.6,87.3c-1.2,0-3,1.4-4.2,3.5l-3.2,5.2v6.3c0,1.6.3,1.9,2.1,1.9s0,.3,0,.3h-7c-1,0,0-.3,0-.3,1.9,0,2.2-.3,2.2-1.9v-5.8l-4.3-6.5c-1.4-2.1-2.2-2.6-3-2.6s0-.3,0-.3h6.3c1,0,0,.3,0,.3-1.2,0-1.4.8-.8,1.7l4.1,6.2,2.9-4.7c1.2-1.9.9-3.3-.8-3.3s0-.3,0-.3h5.8c.8,0,0,.3,0,.3h0Z"/>
    <path class="st0" d="M136.1,115.1c-.7,0-1.4.5-1.7,1.5l-2.9,7.5h-.3l-1.9-4.1-1.5,4.1h-.3l-3.7-8c-.4-.8-.6-1-1.2-1s0-.2,0-.2h3.1c.4,0,0,.2,0,.2-.8,0-.9.2-.5,1.2l2.9,6,1.1-2.8-1.6-3.5c-.3-.7-.6-1-1-1s0-.2,0-.2h2.6c.3,0,0,.2,0,.2-.6,0-.6.2,0,1.2l.8,1.7.5-1.4c.4-1,.3-1.5-.2-1.5s0-.2,0-.2h2.1c.4,0,0,.2,0,.2-.7,0-1.2.4-1.6,1.5l-.7,1.9,1.9,3.9,2.2-5.7c.3-.9,0-1.6-.8-1.6s0-.2,0-.2h3c.5,0,0,.2,0,.2h0l-.2.2Z"/>
    <path class="st0" d="M143.2,122.9c0,.8.2.8.9.8h.9c1.4,0,2.4-.8,2.7-2.2h.2c0,.6-.2,1.6-.2,2.3s0,.3-.3.3h-6.9v-.2c.9,0,1.1-.2,1.1-1v-6.8c0-.8-.2-1-1.1-1s0-.2,0-.2h3.7c.5,0,0,.2,0,.2-.9,0-1.1.2-1.1,1v6.8h0Z"/>
    <path class="st0" d="M155.7,115.1v-.2h3c.4,0,0,.2,0,.2-.8,0-1.2.6-1.2,1.6v4.1c0,2.2-1.4,3.5-3.6,3.5s-3.7-1.4-3.7-3.5v-4.8c0-.8-.2-1-1.1-1s0-.2,0-.2h3.7c.5,0,0,.2,0,.2-.9,0-1.1.2-1.1,1v4.2c0,2.4,1.1,3.5,2.8,3.5s2.7-1.1,2.7-3v-4.1c0-1-.5-1.6-1.4-1.6h-.2Z"/>
    <path class="st0" d="M167.2,121.5c0,1.6-1.4,2.8-3.3,2.8s-1.5,0-2.2,0h-1.9c-.5,0,0-.2,0-.2.9,0,1.2-.2,1.2-1v-6.8c0-.8-.3-1-1.1-1s0-.2,0-.2h3.6c1.8,0,2.7.8,2.7,1.9s-.7,1.8-1.8,2.2c1.6.2,2.7,1.2,2.7,2.5h0v-.2ZM162.6,116.1v2.8h.6c1.2,0,1.8-.9,1.8-2s-.5-1.8-1.6-1.8-.8.2-.8,1h0ZM165.8,121.8c0-1.4-.8-2.4-2.3-2.4s-.5,0-.9,0v3.6c0,.7.2.9,1.2.9s2-.8,2-2h0Z"/>
    <path class="st0" d="M171.4,122.9c0,.8.2.8.9.8h.9c1.4,0,2.4-.8,2.7-2.2h.2c0,.6-.2,1.6-.2,2.3s0,.3-.3.3h-6.9v-.2c.9,0,1.1-.2,1.1-1v-6.8c0-.8-.2-1-1.1-1s0-.2,0-.2h3.7c.5,0,0,.2,0,.2-.9,0-1.1.2-1.1,1v6.8h0Z"/>
    <path class="st0" d="M181.1,124v.2h-3.7c-.5,0,0-.2,0-.2.9,0,1.2-.2,1.2-1v-6.8c0-.8-.2-1-1.2-1s0-.2,0-.2h3.7c.5,0,0,.2,0,.2-.9,0-1.1.2-1.1,1v6.8c0,.8.2,1,1.1,1Z"/>
    <path class="st0" d="M192.8,115.1c-.8,0-1.3.6-1.3,1.6v7.7h-.2l-6.9-8.1v6.1c0,1,.4,1.6,1.2,1.6s0,.2,0,.2h-2.9c-.4,0,0-.2,0-.2.8,0,1.4-.6,1.4-1.6v-6.5c-.6-.6-1-.8-1.4-.8s0-.2,0-.2h2.5c.3,0,.3.2.8.8l5.3,6.2v-5.2c0-1-.4-1.6-1.2-1.6s0-.2,0-.2h2.8c.4,0,0,.2,0,.2h0Z"/>
    <path class="st0" d="M197.7,124v.2h-3.7c-.5,0,0-.2,0-.2.9,0,1.2-.2,1.2-1v-6.8c0-.8-.2-1-1.2-1s0-.2,0-.2h3.7c.5,0,0,.2,0,.2-.9,0-1.1.2-1.1,1v6.8c0,.8.2,1,1.1,1Z"/>
    <path class="st0" d="M206.2,121.8c0,.6-.2,1.4-.2,2s0,.3-.3.3h-6.4v-.2c.9,0,1.1-.2,1.1-1v-6.8c0-.8-.2-1-1.1-1s0-.2,0-.2h6.2c0,0,.2,0,.2.2v1.9h-.2c-.3-1.1-.9-1.7-2-1.7h-.6c-.8,0-1,.3-1,.8v3h1.4c1.1,0,1.6-.4,1.6-1.1s.2,0,.2,0v2.7c0,.5-.2,0-.2,0,0-.8-.5-1.3-1.7-1.3h-1.4v3.4c0,.7.2.8.8.8h.8c1.4,0,2.2-.7,2.5-1.9h.3Z"/>
  </g>
</svg>