<?xml version="1.0" encoding="UTF-8"?>
<svg width="756" height="420" id="Layer_1" xmlns="http://www.w3.org/2000/svg" version="1.1" viewBox="0 0 378 210">
  <defs>
    <style>
      .st0 {
        fill: #fff;
      }
    </style>
  </defs>
  <path class="st0" d="M124.5,118.8l-13.6-27.6h4.3l9.4,18.7,9.4-18.7h4.2l-13.6,27.6h0ZM318.9,90.7l-13.6,21.6-13.6-21.6v28.1h3.9v-15l9.7,15.6,9.7-15.6v15h3.9v-28.1ZM59.1,94.6v24.1h3.9v-11.8h13.8v11.8h3.9v-28.1l-3.9,4v8.3h-13.8v-12.3l-3.9,3.9ZM93.5,106.9h11.8v-3.9h-11.8v-7.9h9.4l3.9-3.9h-17.2v27.6h17.7v-3.9h-13.8v-7.9ZM168.3,94.6v24.1h17.2v-3.9h-13.3v-24.1l-3.9,3.9h0ZM191.5,94.6v24.1h3.9v-28l-3.9,3.9h0ZM250.5,94.6v14.8l-17.7-18.7v28.1h3.9v-18.3l17.7,18.8v-28.6s-3.9,3.9-3.9,3.9ZM279.8,94.6v13.9c0,4.3-2.2,7.1-6.5,7.1s-6.5-2.8-6.5-7.1v-17.8l-3.9,3.9v14.1c0,6.3,3.6,10.5,10.5,10.5s10.4-4.1,10.4-10.5v-18l-3.9,3.9h0ZM200.8,118.8h4.2l9.1-19.5,9,19.5h4.3l-13.3-28.1-13.3,28.1h0ZM147.6,106.9h11.8v-3.9h-11.8v-7.9h9.4l3.9-3.9h-17.2v27.6h17.7v-3.9h-13.8s0-7.9,0-7.9Z"/>
</svg>