<?xml version="1.0" encoding="UTF-8"?>
<svg width="756" height="420" id="Layer_1" xmlns="http://www.w3.org/2000/svg" version="1.1" viewBox="0 0 378 210">
  <defs>
    <style>
      .st0 {
        fill: #D6D6D6;
      }
    </style>
  </defs>
  <path class="st0" d="M89.1,68.1l-.4.4.4.4,82.2,82.2.4.4.4-.4,9.1-9.1.4-.4-.4-.4L99,59l-.4-.4-.4.4-9.1,9.1Z"/>
  <path class="st0" d="M153.4,76.9l-9.9,9.9,28.1,28.1,9.9-9.9-28.1-28.1Z"/>
  <path class="st0" d="M98.6,95.1l-9.9,9.9,28.1,28.1,9.9-9.9-28.1-28.1Z"/>
  <path class="st0" d="M171.7,58.6l-9.9,9.9,9.9,9.9,9.9-9.9-9.9-9.9Z"/>
  <path class="st0" d="M98.6,131.7l-9.9,9.9,9.9,9.9,9.9-9.9-9.9-9.9Z"/>
  <path class="st0" d="M215.1,68.5v12.1h-2.6l-5-8.3-1-1.9v10.2h-1.8v-12.1h2.6l4.9,8.2,1.1,2v-10.2h1.8Z"/>
  <path class="st0" d="M224.6,76.4c0-1.9-.8-2.7-2.6-2.7s-2.5.8-2.5,2.7.7,2.7,2.5,2.7,2.6-.8,2.6-2.7ZM226.2,72.3v8.3h-1.7v-1.7c-.6,1.2-1.6,1.9-3,1.9-2.4,0-3.8-1.7-3.8-4.3s1.5-4.3,3.8-4.3,2.5.7,3,1.9v-1.7h1.8Z"/>
  <path class="st0" d="M234.3,72.3v1.7c-.2-.1-.5-.2-1.1-.2-1.6,0-2.4,1.3-2.4,3.2v3.6h-1.7v-8.3h1.7v2.4c.3-1.3.9-2.6,2.5-2.6.4,0,.7,0,1,.1Z"/>
  <path class="st0" d="M242.4,76.4c0-1.9-.8-2.7-2.6-2.7s-2.5.8-2.5,2.7.7,2.7,2.5,2.7,2.6-.8,2.6-2.7ZM244.2,76.4c0,2.6-1.9,4.3-4.3,4.3s-4.3-1.7-4.3-4.3,1.9-4.3,4.3-4.3,4.3,1.7,4.3,4.3Z"/>
  <path class="st0" d="M252.8,76.4c0-1.9-.8-2.7-2.6-2.7s-2.5.8-2.5,2.7.8,2.7,2.5,2.7,2.6-.8,2.6-2.7ZM254.5,68.5v12.1h-1.7v-1.7c-.6,1.2-1.6,1.9-3,1.9-2.4,0-3.8-1.7-3.8-4.3s1.5-4.3,3.8-4.3,2.5.7,3,1.9v-5.6h1.8Z"/>
  <path class="st0" d="M263.6,76.4c0-1.9-.8-2.7-2.6-2.7s-2.5.8-2.5,2.7.7,2.7,2.5,2.7,2.6-.8,2.6-2.7ZM265.4,76.4c0,2.6-1.9,4.3-4.3,4.3s-4.3-1.7-4.3-4.3,1.9-4.3,4.3-4.3,4.3,1.7,4.3,4.3Z"/>
  <path class="st0" d="M279.3,72.3l-2.4,8.3h-2l-1.6-4.8-.4-1.6-.5,1.6-1.7,4.7h-1.9l-2.4-8.3h1.9l1.2,5,.3,1.7.5-1.7,1.6-5h1.8l1.6,5,.5,1.7.3-1.7,1.2-5h1.9Z"/>
  <path class="st0" d="M289.3,72.3l-3.7,9.5c-.5,1.3-1.1,1.8-2.7,1.8h-1.8v-1.6h3v-.3c.1,0,0,0,0,0l-3.6-9.3h1.9l1.8,5.2.6,1.9.6-2,1.8-5.2h1.9Z"/>
  <path class="st0" d="M206.6,87.5h-1.9v12.1h1.9v-12.1Z"/>
  <path class="st0" d="M217.3,94.5v5.1h-1.8v-5c0-1.2-.7-1.9-1.8-1.9s-2.3,1-2.3,3v3.9h-1.8v-8.3h1.8v2c.4-1.3,1.3-2.2,2.9-2.2s3,1.2,3,3.4Z"/>
  <path class="st0" d="M219.6,97.2l1.7-.5c.2,1.2.8,1.6,2,1.6s1.6-.3,1.6-1-.2-.9-1.2-1l-1.5-.3c-1.3-.2-2.3-.9-2.3-2.4s1.2-2.5,3.2-2.5,3.2.8,3.5,2.5l-1.7.4c-.2-1.3-.7-1.6-1.7-1.6s-1.5.3-1.5,1,.2.9,1,1l1.9.3c1.3.2,2.1,1,2.1,2.3s-1.3,2.6-3.5,2.6c-2,0-3.3-1-3.6-2.5Z"/>
  <path class="st0" d="M231.6,92.9v5.2h2.3v1.6h-1.7c-1.4,0-2.3-.9-2.3-2.3v-4.4h-1.7v-1.6h1.7v-2.5h1.8v2.5h2.5v1.6h-2.5Z"/>
  <path class="st0" d="M244.5,91.3l-3.7,9.5c-.5,1.3-1.2,1.8-2.7,1.8h-1.8v-1.6h3v-.3c.1,0,0,0,0,0l-3.6-9.3h2l1.8,5.2.6,1.9.6-2,1.8-5.2h2Z"/>
  <path class="st0" d="M249.4,92.9v5.2h2.3v1.6h-1.7c-1.4,0-2.3-.9-2.3-2.3v-4.4h-1.7v-1.6h1.7v-2.5h1.8v2.5h2.5v1.6h-2.5Z"/>
  <path class="st0" d="M261.6,91.3v8.3h-1.8v-2c-.4,1.3-1.3,2.2-2.9,2.2s-3-1.2-3-3.4v-5.1h1.8v5c0,1.2.7,1.9,1.8,1.9s2.3-1,2.3-3v-3.9h1.8Z"/>
  <path class="st0" d="M267.1,92.9v5.2h2.3v1.6h-1.7c-1.4,0-2.3-.9-2.3-2.3v-4.4h-1.7v-1.6h1.7v-2.5h1.8v2.5h2.5v1.6h-2.5Z"/>
  <path class="st0" d="M218.3,106.5v12.1h-1.8v-10.9l-.5,2.1-3.3,8.8h-2.2l-3.3-8.8-.5-2v10.8h-1.8v-12.1h3.2l2.6,7.3,1,3.2,1-3.2,2.6-7.3h3.2Z"/>
  <path class="st0" d="M229.1,110.3v8.3h-1.8v-2c-.4,1.3-1.3,2.2-2.9,2.2s-3-1.2-3-3.4v-5.1h1.8v5c0,1.2.7,1.9,1.8,1.9s2.3-1,2.3-3v-3.9h1.8Z"/>
  <path class="st0" d="M238.3,117.1v1.5h-6.8v-1.4l4.6-5.4h-4.6v-1.5h6.7v1.4l-3.1,3.6-1.8,1.7h5.1Z"/>
  <path class="st0" d="M248.7,110.3l-3.7,9.5c-.5,1.3-1.2,1.8-2.7,1.8h-1.8v-1.6h3v-.3c.1,0,0,0,0,0l-3.6-9.3h2l1.8,5.2.6,1.9.6-2,1.8-5.2h2Z"/>
  <path class="st0" d="M254,114.8l-1.6,1.7v2.1h-1.8v-12.1h1.8v8.5l1.2-1.8,2.4-2.9h2.2l-3.2,3.4,3.4,4.9h-2.1l-2.4-3.8Z"/>
  <path class="st0" d="M260.5,110.3h1.8v8.3h-1.8v-8.3ZM260.2,107.4c0-.7.4-1.1,1.2-1.1s1.2.4,1.2,1.1c0,.8-.4,1.2-1.2,1.2s-1.2-.4-1.2-1.2Z"/>
  <path class="st0" d="M204.5,129.3h1.7v8.3h-1.7v-8.3ZM204.2,126.4c0-.7.4-1.1,1.2-1.1s1.2.4,1.2,1.1c0,.8-.4,1.2-1.2,1.2s-1.2-.4-1.2-1.2Z"/>
  <path class="st0" d="M220.9,127.2h-3.7v10.4h-1.8v-10.4h-3.7v-1.7h9.3v1.7Z"/>
  <path class="st0" d="M227.7,133.5c0-1.9-.8-2.7-2.6-2.7s-2.5.8-2.5,2.7.7,2.7,2.5,2.7,2.6-.8,2.6-2.7ZM229.3,129.3v8.3h-1.7v-1.7c-.6,1.2-1.6,1.9-3,1.9-2.4,0-3.8-1.7-3.8-4.3s1.5-4.3,3.8-4.3,2.5.7,3,1.9v-1.7h1.8Z"/>
  <path class="st0" d="M236.3,127.9h-1.1l1.1-2.9h2.6l-2.7,2.9ZM239.6,132.5v5.1h-1.7v-5c0-1.2-.7-1.9-1.8-1.9s-2.3,1-2.3,3v3.9h-1.7v-8.3h1.7v2c.4-1.3,1.3-2.2,2.9-2.2s2.9,1.2,2.9,3.4Z"/>
  <path class="st0" d="M248.3,134.1l1.7.4c-.5,2.3-2.1,3.3-4,3.3s-4.3-1.7-4.3-4.3,1.7-4.3,4.3-4.3,3.5,1,4,3.3l-1.7.4c-.3-1.6-1-2.1-2.3-2.1s-2.5.8-2.5,2.7.7,2.7,2.5,2.7,2-.5,2.3-2.1Z"/>
  <path class="st0" d="M258.5,133.5c0-1.9-.8-2.7-2.6-2.7s-2.5.8-2.5,2.7.7,2.7,2.5,2.7,2.6-.8,2.6-2.7ZM260.2,129.3v8.3h-1.7v-1.7c-.6,1.2-1.6,1.9-3,1.9-2.4,0-3.8-1.7-3.8-4.3s1.5-4.3,3.8-4.3,2.5.7,3,1.9v-1.7h1.8Z"/>
</svg>