<?xml version="1.0" encoding="UTF-8"?>
<svg width="756" height="420" id="Layer_1" xmlns="http://www.w3.org/2000/svg" version="1.1" viewBox="0 0 378 210">
  <defs>
    <style>
      .st0 {
        fill: #fff;
      }
    </style>
  </defs>
  <path class="st0" d="M225.7,87c-.1-.1-.2-.2-.4-.2s-.3.1-.5.2-.4.2-.6.4c-.3.1-.6.3-.9.4-.4.1-.8.2-1.2.2s-.9-.1-1.3-.3c-.4-.2-.8-.4-1-.8-.3-.4-.6-.8-.7-1.2-.2-.5-.3-1-.3-1.8h7.1c.2,0,.3-.1.4-.2.1-.1.1-.3.1-.6,0-.8-.1-1.4-.4-2-.2-.6-.6-1.1-1-1.5s-.9-.8-1.4-1c-.6-.2-1.1-.3-1.8-.3s-1.4,0-2.1.4c-.7.3-1.1.7-1.6,1.1-.5.5-.8,1-1,1.7s-.4,1.3-.4,2.1.1,1.7.4,2.5c.3.7.6,1.3,1,1.8.5.5.9.9,1.6,1.1.7.3,1.3.4,2,.4s.8,0,1.1-.1c.4-.1.8-.2,1.1-.3.4-.1.8-.3,1-.5.3-.2.6-.5.9-.8v-.7ZM219.9,80.5c.6-.6,1.2-.8,2.1-.8s.9.1,1.1.2c.4.2.7.4.9.6.2.3.4.6.6,1,.1.4.2.8.2,1.2h-5.9c0-.9.4-1.7,1-2.2Z"/>
  <path class="st0" d="M235.6,86.3c-.4.5-.9.9-1.3,1-.5.3-1,.4-1.5.4-.8,0-1.3-.2-1.7-.7s-.6-1-.6-1.9v-6.7h-1.9v6.8c0,.6.1,1.1.2,1.6.2.5.4,1,.7,1.2.3.4.7.7,1.1.9.5.2.9.3,1.5.3s1.4-.2,2-.5,1.1-.8,1.5-1.2l.2,1.1c.1.3.3.4.5.4h1.1v-10.5h-1.9v7.8h0Z"/>
  <path class="st0" d="M242.4,82.5c.1-.4.3-.7.5-1s.4-.6.6-.8c.2-.2.5-.4.7-.5.3-.1.6-.2,1-.2s.5,0,.7.1c.2,0,.4.1.5.1.2,0,.3-.1.3-.3v-1.4c0-.1-.3-.2-.5-.2-.2-.1-.4-.1-.7-.1-.7,0-1.3.2-1.8.6s-.9,1-1.2,1.7v-1.6c-.1-.2-.2-.3-.3-.4-.1-.1-.2-.1-.4-.1h-1v10.7h1.9l-.3-6.6h0Z"/>
  <path class="st0" d="M256.4,79.8c-.5-.5-1-.9-1.6-1.1-.7-.3-1.3-.4-2.1-.4s-1.5.1-2.1.4c-.7.3-1.1.7-1.6,1.1-.5.5-.8,1-1,1.7s-.4,1.4-.4,2.3.1,1.6.4,2.3c.2.7.6,1.2,1,1.7.5.5.9.9,1.6,1.1.7.3,1.3.4,2.1.4s1.5-.1,2.1-.4c.7-.3,1.1-.7,1.6-1.1.5-.5.8-1,1-1.7s.4-1.4.4-2.3-.1-1.6-.4-2.3c-.3-.6-.6-1.2-1-1.7ZM255,86.8c-.5.7-1.3,1-2.4,1s-1.9-.4-2.4-1c-.6-.7-.8-1.7-.8-2.9s.1-1.2.2-1.7c.1-.5.3-1,.6-1.2.3-.4.6-.6,1-.8.4-.2.9-.3,1.4-.3,1,0,1.8.4,2.4,1,.5.7.8,1.7.8,2.9s-.3,2.3-.8,3Z"/>
  <path class="st0" d="M262.1,88.1c.4.4.8.7,1.2,1,.5.2,1,.3,1.7.3s1.3-.1,1.9-.4c.6-.3,1-.7,1.4-1.1.4-.5.7-1,1-1.8.2-.7.3-1.4.3-2.2s-.1-1.7-.3-2.4-.5-1.2-.9-1.7-.8-.9-1.2-1c-.5-.2-1-.4-1.7-.4s-1.4.2-2,.5c-.6.4-1.1.8-1.5,1.3l-.2-1.2c-.1-.3-.2-.4-.5-.4h-1.1v14.4h1.9v-4.9ZM262.1,81.4c.4-.5.9-1,1.2-1.2.5-.3,1-.4,1.6-.4s.9.1,1.1.2c.4.2.7.4.9.7.2.3.4.8.6,1.2.1.5.2,1.1.2,1.8,0,1.3-.3,2.4-.8,3-.6.7-1.3,1-2.3,1s-1-.1-1.3-.3c-.4-.2-.8-.5-1.1-1v-5h0Z"/>
  <path class="st0" d="M272.8,87.9c.5.5,1,.9,1.6,1.1.7.3,1.3.4,2,.4s.8,0,1.1-.1c.4-.1.8-.2,1.1-.3.4-.1.8-.3,1-.5.3-.2.6-.5.9-.8l-.6-.7c-.1-.1-.2-.2-.4-.2s-.3.1-.5.2-.4.2-.6.4c-.3.1-.6.3-.9.4-.4.1-.8.2-1.2.2s-1-.1-1.3-.3c-.4-.2-.8-.4-1-.8-.3-.4-.6-.8-.7-1.2-.2-.5-.3-1-.3-1.8h7.1c.2,0,.3-.1.4-.2.1-.1.1-.3.1-.6,0-.8-.1-1.4-.4-2-.2-.6-.6-1.1-1-1.5s-.9-.8-1.4-1c-.6-.2-1.1-.3-1.8-.3s-1.4,0-2.1.4c-.7.3-1.1.7-1.6,1.1-.5.5-.8,1-1,1.7s-.4,1.3-.4,2.1.1,1.7.4,2.5c.6.7,1,1.3,1.5,1.8ZM274.2,80.5c.6-.6,1.2-.8,2.1-.8s.9.1,1.1.2c.4.2.7.4.9.6.2.3.4.6.6,1,.1.4.2.8.2,1.2h-5.9c.2-.9.5-1.7,1-2.2Z"/>
  <path class="st0" d="M282,93c.6,0,1-.1,1.3-.2.4-.2.7-.4.9-.7.3-.3.4-.6.6-1,.1-.4.2-.8.2-1.2v-11.4h-1.8v11.5c0,.6-.1,1-.4,1.2-.2.3-.7.4-1.1.4h-.6q-.1,0-.1.1c0,.1-.1.1-.1.1v1c0,.1.3.1.5.2.2,0,.4,0,.6,0Z"/>
  <path class="st0" d="M283.2,76.1c.1.1.3.2.4.3.2.1.3.1.5.1s.4,0,.5-.1c.2-.1.3-.2.5-.3.1-.1.2-.3.3-.4.1-.2.1-.3.1-.5s0-.4-.1-.5c-.1-.2-.2-.3-.3-.5-.1-.1-.3-.2-.5-.3s-.4-.1-.5-.1c-.2,0-.4,0-.5.1-.2.1-.3.2-.4.3-.1.1-.2.3-.3.5s-.1.4-.1.5,0,.4.1.5c.1,0,.2.3.3.4Z"/>
  <path class="st0" d="M292.7,87.5c-.2.2-.4.3-.7.4s-.6.1-1,.1-.8-.1-1-.2c-.3-.1-.6-.2-.8-.3-.2-.1-.4-.2-.5-.3-.1-.1-.3-.2-.4-.2s-.2,0-.3.1-.2.1-.2.2l-.5.8c.4.4,1,.7,1.5,1,.6.3,1.2.4,2,.4s1.2-.1,1.7-.3c.5-.2,1-.4,1.2-.8.4-.3.6-.7.8-1,.2-.4.3-.9.3-1.3s-.1-.8-.2-1.1c-.2-.3-.4-.6-.7-.8-.3-.2-.6-.4-.9-.6-.3-.1-.7-.3-1-.4-.4-.1-.7-.2-1-.3-.3-.1-.7-.2-.9-.4-.3-.1-.5-.3-.7-.5s-.2-.4-.2-.7,0-.4.2-.6c.1-.2.2-.4.4-.5s.4-.3.7-.4.6-.1.9-.1.7,0,.9.1c.3.1.5.2.7.3.2.1.4.2.5.3.1.1.3.1.4.1.2,0,.3-.1.4-.2l.4-.7c-.4-.4-.9-.7-1.4-1-.6-.2-1.2-.4-1.9-.4s-1.1.1-1.6.3c-.5.2-.9.4-1.2.7-.4.3-.6.6-.8,1s-.3.8-.3,1.1c0,.5.1.9.2,1.1.2.3.4.6.7.8.3.2.6.4.9.6.4.2.7.3,1,.4.4.1.7.2,1,.3.4.1.7.2.9.4.3.1.5.3.7.5s.2.5.2.8,0,.5-.1.7c0,.2-.2.4-.3.6Z"/>
  <path class="st0" d="M304.3,89.1c.1.1.3.1.4.1h1.7l-4.2-5.3c-.1-.1-.2-.3-.3-.4-.1-.1-.2-.2-.4-.3.2-.1.4-.3.6-.6l3.9-4.2h-1.7c-.2,0-.3,0-.5.1-.1.1-.2.2-.3.3l-3.4,3.6c-.1.1-.2.2-.3.2s-.2.1-.4.1h-.5v-9.1h-1.9v15.6h1.9v-5.1h.6c.2,0,.4,0,.5.1.1,0,.2.1.3.3l3.5,4.4c.4.1.5.2.5.2Z"/>
  <path class="st0" d="M310.1,78.5h-1.9v10.7h1.9v-10.7Z"/>
  <path class="st0" d="M310.1,74.2c-.1-.1-.3-.2-.5-.3s-.4-.1-.5-.1-.4,0-.5.1c-.2.1-.3.2-.4.3s-.2.3-.3.5c-.1.2-.1.4-.1.5s0,.4.1.5c.1.2.2.3.3.4.1.1.3.2.4.3.2.1.3.1.5.1s.4,0,.5-.1c.2-.1.3-.2.5-.3s.2-.3.3-.4c.1-.2.1-.3.1-.5s0-.4-.1-.5c-.2-.2-.3-.4-.3-.5Z"/>
  <path class="st0" d="M321.7,87.7l-.6-.7c-.1-.1-.2-.2-.4-.2s-.3.1-.5.2-.4.2-.6.4c-.3.1-.6.3-.9.4-.4.1-.8.2-1.2.2s-1-.1-1.3-.3c-.4-.2-.8-.4-1-.8-.3-.4-.6-.8-.7-1.2-.2-.5-.3-1-.3-1.8h7.1c.2,0,.3-.1.4-.2s.1-.3.1-.6c0-.8-.1-1.4-.4-2-.2-.6-.6-1.1-1-1.5s-.9-.8-1.4-1c-.6-.2-1.1-.3-1.8-.3s-1.4.1-2.1.4c-.7.3-1.1.7-1.6,1.1-.5.5-.8,1-1,1.7s-.4,1.3-.4,2.1.1,1.7.4,2.5c.3.7.6,1.3,1,1.8.5.5,1,.9,1.6,1.1.7.3,1.3.4,2,.4s.8,0,1.1-.1c.4-.1.8-.2,1.1-.3.4-.1.8-.3,1-.5,1-.2,1.2-.5,1.4-.8ZM315.5,80.5c.6-.6,1.2-.8,2.1-.8s.9.1,1.1.2c.4.2.7.4.9.6.2.3.4.6.6,1,.1.4.2.8.2,1.2h-5.9c0-.9.5-1.7,1-2.2Z"/>
  <path class="st0" d="M224.7,110.2c-.1,0-.3,0-.4.2-.1,0-.3.2-.5.4-.2,0-.5.3-.8.4-.3,0-.7.2-1.1.2s-1,0-1.3-.3c-.4-.2-.7-.5-1-.8-.3-.4-.5-.8-.7-1.2-.2-.5-.2-1-.2-1.7s.1-1.1.2-1.7c.1-.5.4-1,.6-1.2.3-.4.6-.7,1-.8.4-.2.9-.3,1.4-.3s.8,0,1,0c.3,0,.5.2.7.3s.4.2.5.3.3,0,.4,0,.2,0,.2,0c.1,0,.1,0,.2-.2l.5-.7c-.5-.5-1-.8-1.5-1-.6-.3-1.2-.4-2-.4s-1.5,0-2.2.4c-.7.3-1.1.7-1.6,1.1-.4.5-.8,1-.9,1.7-.2.7-.4,1.4-.4,2.2s.1,1.6.4,2.4c.3.7.6,1.2.9,1.7.4.5.9.9,1.5,1,.6.3,1.2.4,1.9.4s.8,0,1.1,0c.4,0,.8-.2,1-.3.4,0,.7-.3.9-.5.3-.2.6-.5.8-.8l-.6-.7c.3,0,.2-.1,0-.1Z"/>
  <path class="st0" d="M235.2,103c-.4-.4-.9-.8-1.4-1-.6-.2-1.1-.3-1.8-.3s-1.4,0-2.1.4c-.7.3-1.1.7-1.6,1.1-.5.5-.8,1-1,1.7s-.4,1.3-.4,2.1.1,1.7.4,2.5c.3.7.6,1.3,1,1.8.5.5,1,.9,1.6,1.1.7.3,1.3.4,2,.4s.8,0,1.1,0c.4,0,.8-.2,1.1-.3.4,0,.8-.3,1-.5.3-.2.6-.5.9-.8l-.6-.7c-.1,0-.2-.2-.4-.2s-.3,0-.5.2c-.2,0-.4.2-.6.4-.3,0-.6.3-.9.4-.4,0-.8.2-1.2.2s-.9,0-1.3-.3c-.4-.2-.8-.4-1-.8-.3-.4-.6-.8-.7-1.2-.2-.5-.3-1-.3-1.8h7.1c.2,0,.3,0,.4-.2.1,0,.1-.3.1-.6,0-.8-.1-1.4-.4-2,.2-.7-.1-1.1-.5-1.5ZM229,106c.1-1,.5-1.6,1-2.2.6-.6,1.2-.8,2.1-.8s.9,0,1.1.2c.4.2.7.4.9.6.2.3.4.6.6,1,.1.4.2.8.2,1.2h-5.9Z"/>
  <path class="st0" d="M246.8,102.8c-.3-.4-.7-.7-1.1-.9-.5-.2-.9-.3-1.5-.3s-.8,0-1,0c-.3,0-.7.2-.9.4-.3.2-.6.4-.9.6-.3.2-.5.5-.8.7l-.2-1.1c-.1-.3-.2-.4-.5-.4h-1v10.7h1.9v-7.9c.4-.5.9-.9,1.3-1,.5-.3,1-.4,1.5-.4.8,0,1.3.2,1.7.7s.6,1,.6,1.9v6.8h1.9v-6.8c0-.6-.1-1.1-.2-1.6-.3-.7-.6-1.1-.8-1.5Z"/>
  <path class="st0" d="M252.2,98.4c-.1,0-.2,0-.3,0s-.1.2-.2.3l-.5,3.3-1.7.2v.8c0,0,0,.3.1.3.1,0,.2,0,.3,0h1.3v6.6c0,.9.2,1.5.7,2s1.1.7,1.9.7,1,0,1.4-.3c.5-.2.9-.4,1.1-.8l-.6-.9c-.1,0-.2-.2-.3-.2s-.1,0-.2,0c-.1,0-.2,0-.3.2-.1,0-.2,0-.4.2-.2,0-.3,0-.5,0-.4,0-.7,0-.9-.3s-.3-.6-.3-1v-6.5h3.1v-1.3h-3.1v-3.7h-.6Z"/>
  <path class="st0" d="M260.1,105.8c.1-.4.3-.7.5-1s.4-.6.6-.8c.2-.2.5-.4.7-.5.3,0,.6-.2.9-.2s.5,0,.7,0c.2,0,.4,0,.5,0,.2,0,.3,0,.3-.3v-1.4c0,0-.3-.2-.5-.2-.2,0-.4,0-.7,0-.7,0-1.3.2-1.8.6-.5.4-1,1-1.2,1.7v-1.6c-.1-.2-.2-.3-.3-.4-.1,0-.2,0-.4,0h-1v10.7h1.9l-.2-6.6h0Z"/>
  <path class="st0" d="M272.8,111.1l.2,1.1c.1.3.3.4.5.4h1.1v-10.8h-1.9v7.9c-.4.5-.9.9-1.3,1-.5.3-1,.4-1.5.4-.8,0-1.3-.2-1.7-.7s-.6-1-.6-1.9v-6.8h-1.9v6.9c0,.6.1,1.1.2,1.6.2.5.4,1,.7,1.2.3.4.7.7,1.1.9.5.2.9.3,1.5.3s1.4-.2,2-.5c.6-.2,1.1-.6,1.6-1Z"/>
  <path class="st0" d="M290.2,112.6h1.9v-6.8c0-.7-.1-1.2-.3-1.7s-.4-1-.7-1.2c-.3-.3-.7-.6-1.1-.8-.5-.2-.9-.3-1.5-.3s-.7,0-1,0c-.4,0-.7.2-.9.4-.3.2-.6.4-.9.7-.3.3-.5.6-.6,1-.2-.7-.5-1.2-.9-1.6-.5-.4-1-.6-1.7-.6s-1.2.2-1.7.5-1,.7-1.3,1.2v-1.1c-.2-.3-.3-.4-.6-.4h-1.1v10.7h1.9v-8c.3-.5.7-.8,1-1,.4-.3.9-.4,1.3-.4.7,0,1.1.2,1.5.7.4.4.5,1,.5,1.9v6.8h1.9v-6.8c0-.4.1-.8.2-1.1.1-.3.3-.6.5-.8s.5-.4.8-.5.6-.2.9-.2c.7,0,1.2.2,1.6.7.4.5.6,1,.6,1.9l-.3,6.7h0Z"/>
  <path class="st0" d="M223.5,130.8c-.3-.2-.6-.4-.9-.6-.3,0-.7-.3-1-.4-.4,0-.7-.2-1-.3-.4,0-.7-.2-.9-.4-.3,0-.5-.3-.7-.5s-.2-.4-.2-.7,0-.4.2-.6c.1-.2.2-.4.4-.5s.4-.3.7-.3c.3,0,.6,0,.9,0s.7,0,1,0,.5.2.7.3c.2,0,.4.2.5.3.1,0,.3,0,.4,0,.2,0,.3,0,.4-.2l.4-.7c-.4-.4-.9-.7-1.4-1-.6-.2-1.2-.3-1.9-.3s-1.1,0-1.6.3-.9.4-1.2.7-.6.6-.8,1-.3.8-.3,1.1c0,.5.1.9.2,1.1.2.3.4.6.7.8.3.2.6.4.9.6.4.2.7.3,1,.4.4,0,.7.2,1,.3.4,0,.7.2.9.4.3,0,.5.3.7.5s.2.5.2.8,0,.5-.1.7-.2.4-.4.6-.4.3-.7.4-.6,0-.9,0c-.5,0-.8,0-1-.2-.3,0-.6-.2-.8-.3-.2,0-.4-.2-.5-.3-.1,0-.3-.2-.4-.2s-.2,0-.3,0-.2,0-.2.2l-.5.8c.4.4,1,.7,1.5,1,.6.3,1.2.4,2,.4s1.2,0,1.7-.3c.5-.2,1-.4,1.2-.8.4-.3.6-.7.8-1,.2-.4.3-.9.3-1.3s-.1-.8-.2-1.1c-.4-.5-.5-.8-.8-1Z"/>
  <path class="st0" d="M234.9,126.6c-.5-.5-.9-.9-1.6-1.1-.7-.3-1.3-.4-2.1-.4s-1.5,0-2.1.4c-.7.3-1.1.7-1.6,1.1-.5.5-.8,1-1,1.7s-.4,1.4-.4,2.3.1,1.6.4,2.3c.2.7.6,1.2,1,1.7.5.5,1,.9,1.6,1.1.7.3,1.3.4,2.1.4s1.5,0,2.1-.4c.7-.3,1.1-.7,1.6-1.1.5-.5.8-1,1-1.7s.4-1.4.4-2.3-.1-1.6-.4-2.3c-.2-.7-.5-1.3-1-1.7ZM233.5,133.6c-.5.7-1.3,1-2.4,1s-1.9-.4-2.4-1c-.6-.7-.8-1.7-.8-2.9s.1-1.2.2-1.7c.1-.5.3-1,.6-1.2.3-.4.6-.6,1-.8.4-.2.9-.3,1.4-.3,1,0,1.8.4,2.4,1,.5.7.8,1.7.8,2.9s-.2,2.2-.8,3Z"/>
  <path class="st0" d="M240.7,120.4h-1.9v15.6h1.9v-15.6Z"/>
  <path class="st0" d="M245.6,125.2h-1.9v10.7h1.9v-10.7Z"/>
  <path class="st0" d="M245.6,120.9c-.1,0-.3-.2-.5-.3s-.4,0-.5,0-.4,0-.5,0c-.2,0-.3.2-.4.3-.1,0-.2.3-.3.5s-.1.4-.1.5c0,.2,0,.4.1.5.1.2.2.3.3.4.1,0,.3.2.4.3.2,0,.3,0,.5,0s.4,0,.5,0c.2,0,.3-.2.5-.3.1,0,.2-.3.3-.4.1-.2.1-.3.1-.5s0-.4-.1-.5c0-.2-.2-.4-.3-.5Z"/>
  <path class="st0" d="M255.7,126.3c-.4-.4-.8-.7-1.2-1-.5-.2-1-.4-1.7-.4s-1.3.2-1.9.5c-.6.3-1,.7-1.4,1.1-.4.5-.7,1-.9,1.8-.2.7-.3,1.4-.3,2.2s.1,1.7.3,2.4c.2.7.5,1.2.9,1.7s.8.8,1.2,1c.5.2,1,.4,1.7.4s1.4-.2,2-.5c.6-.4,1.1-.8,1.5-1.3l.2,1.3c.1.3.3.4.5.4h1.1v-15.5h-1.9v5.9h-.1ZM255.7,132.9c-.4.5-.9,1-1.2,1.2-.5.3-1,.4-1.6.4s-.9,0-1.1-.2c-.4-.2-.7-.4-.9-.7-.2-.3-.4-.8-.6-1.2-.1-.5-.2-1-.2-1.8,0-1.3.3-2.4.8-3,.6-.7,1.3-1,2.3-1s1,0,1.3.3c.4.2.8.5,1.1,1v5h0Z"/>
  <path class="st0" d="M267.2,126.2c-.3-.4-.7-.7-1.1-.9-.5-.2-1-.3-1.6-.3-.9,0-1.6,0-2.3.4-.7.3-1.3.7-1.9,1.2l.4.6c.1,0,.1.2.2.3.1,0,.2,0,.3,0,.2,0,.3,0,.5-.2s.4-.3.6-.4c.2-.2.5-.3.9-.4.3,0,.7-.2,1.1-.2.7,0,1.2.2,1.6.7.4.4.6,1,.6,1.9v.9c-1.2,0-2.3,0-3,.3-.9.2-1.5.5-2,.8s-.9.7-1.1,1c-.2.4-.4.8-.4,1.2s.1,1,.2,1.2c.2.4.4.7.7.9.3.2.6.4,1,.5s.8.2,1.1.2.8,0,1.1,0c.4,0,.7-.2,1-.3.3,0,.6-.3.9-.5.3-.2.6-.5.9-.7l.2,1c.1.2.1.3.2.4.1,0,.3,0,.4,0h.9v-6.8c0-.6-.1-1.1-.3-1.6-.5-.6-.8-.9-1.1-1.3ZM266.3,133.3c-.2.2-.4.4-.7.6-.2.2-.5.3-.7.5-.3,0-.5.2-.8.3-.3,0-.6,0-.9,0s-.5,0-.7,0l-.6-.3c-.2,0-.3-.3-.4-.5-.1-.2-.1-.5-.1-.8s.1-.6.3-.8c.2-.3.5-.5.9-.7s.9-.3,1.5-.4,1.3-.2,2.2-.2v2.3h0Z"/>
  <path class="st0" d="M275.8,125c-.7,0-1.3.2-1.8.7-.5.4-.9,1-1.2,1.7v-1.6c-.1-.2-.2-.3-.3-.4-.1,0-.2,0-.4,0h-1v10.7h1.9v-6.7c.1-.4.3-.7.5-1s.4-.6.6-.8c.2-.2.5-.4.7-.5.3,0,.6-.2,1-.2s.5,0,.7,0c.2,0,.4,0,.5,0,.2,0,.3,0,.3-.3v-1.3c-.3,0-.5-.2-.7-.2-.3-.2-.5-.2-.8-.2Z"/>
  <path class="st0" d="M286.7,126.2c-.3-.4-.7-.7-1.1-.9-.5-.2-.9-.3-1.5-.3s-.8,0-1,0c-.3,0-.7.2-.9.4-.3.2-.6.3-.9.6-.3.2-.5.5-.8.7l-.2-1.1c-.1-.3-.2-.4-.5-.4h-1v10.7h1.9v-7.9c.4-.5.9-.9,1.3-1,.5-.3,1-.4,1.5-.4.8,0,1.3.2,1.7.7s.6,1,.6,1.9v6.8h1.9v-6.8c0-.6-.1-1.1-.2-1.6-.3-.8-.4-1.1-.8-1.5Z"/>
  <path class="st0" d="M298.7,126.6c-.5-.5-1-.9-1.6-1.1-.7-.3-1.3-.4-2.1-.4s-1.5,0-2.1.4c-.7.3-1.1.7-1.6,1.1-.5.5-.8,1-1,1.7s-.4,1.4-.4,2.3.1,1.6.4,2.3c.2.7.6,1.2,1,1.7.5.5.9.9,1.6,1.1.7.3,1.3.4,2.1.4s1.5,0,2.1-.4c.7-.3,1.1-.7,1.6-1.1.5-.5.8-1,1-1.7s.4-1.4.4-2.3-.1-1.6-.4-2.3c-.2-.7-.6-1.3-1-1.7ZM297.3,133.6c-.5.7-1.3,1-2.4,1s-1.9-.4-2.4-1c-.6-.7-.8-1.7-.8-2.9s.1-1.2.2-1.7c.1-.5.3-1,.6-1.2.3-.4.6-.6,1-.8.4-.2.9-.3,1.4-.3,1,0,1.8.4,2.4,1,.5.7.8,1.7.8,2.9.1,1.3-.2,2.2-.8,3Z"/>
  <path class="st0" d="M308.5,130.8c-.3-.2-.6-.4-.9-.6-.3,0-.7-.3-1-.4-.4,0-.7-.2-1-.3-.3,0-.7-.2-.9-.4-.3,0-.5-.3-.7-.5s-.2-.4-.2-.7,0-.4.2-.6c.1-.2.2-.4.4-.5.2,0,.4-.3.7-.3.3,0,.6,0,.9,0s.7,0,.9,0c.3,0,.5.2.7.3.2,0,.4.2.5.3.1,0,.3,0,.4,0,.2,0,.3,0,.4-.2l.4-.7c-.4-.4-.9-.7-1.4-1-.6-.2-1.2-.3-1.9-.3s-1.1,0-1.6.3-.9.4-1.2.7c-.4.3-.6.6-.8,1-.2.4-.3.8-.3,1.1,0,.5.1.9.2,1.1.2.3.4.6.7.8.3.2.6.4.9.6.4.2.7.3,1,.4.4,0,.7.2,1,.3.4,0,.7.2.9.4.3,0,.5.3.7.5s.2.5.2.8,0,.5-.1.7-.2.4-.4.6c-.2.2-.4.3-.7.4-.3,0-.6,0-1,0s-.8,0-1-.2c-.3,0-.6-.2-.8-.3-.2,0-.4-.2-.5-.3-.1,0-.3-.2-.4-.2s-.2,0-.3,0c-.1,0-.2,0-.2.2l-.5.8c.4.4,1,.7,1.5,1s1.2.4,2,.4,1.2,0,1.7-.3c.5-.2,1-.4,1.2-.8.4-.3.6-.7.8-1,.2-.4.3-.9.3-1.3s-.1-.8-.2-1.1c-.1-.5-.3-.8-.6-1Z"/>
  <path class="st0" d="M306.1,121.1l-1.5,2.6h1.1c.2,0,.3,0,.4,0,.1,0,.2,0,.3-.2l2.5-2.8h-1.8c-.2,0-.4,0-.5,0-.3.1-.4.2-.5.4Z"/>
  <path class="st0" d="M318.8,133.6c-.1,0-.3,0-.4.2s-.3.2-.5.4c-.2,0-.5.3-.8.4s-.7.2-1.1.2-1,0-1.3-.3-.7-.5-1-.8c-.3-.4-.5-.8-.7-1.2-.2-.5-.2-1-.2-1.7s.1-1.1.2-1.7c.1-.5.4-1,.6-1.2.3-.4.6-.7,1-.8.4-.2.9-.3,1.4-.3s.8,0,1,0c.3,0,.5.2.7.3.2,0,.4.2.5.3.1,0,.3,0,.4,0s.2,0,.2,0c.1,0,.1,0,.2-.2l.5-.7c-.5-.5-1-.8-1.5-1-.6-.3-1.2-.4-2-.4s-1.5,0-2.2.4c-.7.3-1.1.7-1.6,1.1-.4.5-.8,1-1,1.7s-.4,1.4-.4,2.2.1,1.6.4,2.4c.3.7.6,1.2,1,1.7s1,.9,1.5,1c.6.3,1.2.4,1.9.4s.8,0,1.1,0c.4,0,.8-.2,1-.3.4,0,.7-.3.9-.5s.6-.5.8-.8l-.6-.7c.3,0,.1,0,0,0Z"/>
  <path class="st0" d="M324,121.3c-.1-.2-.2-.3-.3-.5-.1,0-.3-.2-.5-.3s-.4,0-.5,0c-.2,0-.4,0-.5,0-.2,0-.3.2-.4.3s-.2.3-.3.5c-.1.2-.1.4-.1.5,0,.2,0,.4.1.5.1.2.2.3.3.4s.3.2.4.3c.2,0,.3,0,.5,0s.4,0,.5,0c.2,0,.3-.2.5-.3.1,0,.2-.3.3-.4.1-.2.1-.3.1-.5,0-.1,0-.3-.1-.5Z"/>
  <path class="st0" d="M323.6,125.2h-1.9v10.7h1.9v-10.7Z"/>
  <path class="st0" d="M114.2,78.4c-15,0-19.5,9.2-19.5,16.2v25.3c0,6.9,4.5,16.2,19.5,16.2s19.5-9.2,19.5-16.2v-4.2h-10.9v3.5c0,4.2-2.9,7.6-8.5,7.6s-8.4-3.4-8.4-7.6v-24c0-4.2,2.9-7.6,8.4-7.6s8.5,3.4,8.5,7.6v3.7h10.8v-4.4c0-6.9-4.4-16.1-19.4-16.1Z"/>
  <path class="st0" d="M175.9,106.9c-1.4-1.1-3.4-2.2-6-3.3s-6.9-2.2-9.5-3.2c-4.4-1.9-6.6-3.1-6.7-7.3,0-1.1.4-2.1.9-2.9.2-.3,1-1.2,1.8-1.7,1.3-.8,3.1-1,5.4-1,5.3,0,8.1,1.9,8.1,6v3.2h10.9v-4.8c0-6.9-4.7-13.5-19.1-13.5s-2.3.1-3.4.1c-1.6.1-4,.7-4.6.8-2.6.8-4.8,1.8-6.4,3.1-3.2,2.9-4.8,6.7-4.8,11.6s1.9,8.4,5.8,11.4c1.4,1.1,3.4,2.3,6,3.3s5.7,2.4,8.3,3.3c5.2,1.8,7.4,3.5,7.5,7.9.1,2.9-.9,4.5-2.3,5.4-2.3,1.7-7,1.8-9.1,1.3-3.6-.9-6-2.9-6.1-7.5v-3.6h-10.9v6.9c0,6.6,4.5,12.7,17.4,13.4.5,0,2.3,0,3.8,0,5-.4,10.4-1.9,13.4-4.7,3.5-3.1,5.2-7.2,5.2-12.3.2-5-1.7-8.7-5.6-11.8Z"/>
  <path class="st0" d="M65.1,111.6h20v-8.8h-20v-14.5h22v-9.1h-33.1v56.2c0,0,33.2,0,33.2,0v-9.2h-22v-14.6h-.1Z"/>
</svg>