<?xml version="1.0" encoding="UTF-8"?>
<svg id="Layer_1" xmlns="http://www.w3.org/2000/svg" xmlns:xlink="http://www.w3.org/1999/xlink" version="1.1" viewBox="0 0 803 803">
  <!-- Generator: Adobe Illustrator 29.8.2, SVG Export Plug-In . SVG Version: 2.1.1 Build 3)  -->
  <defs>
    <style>
      .st0 {
        fill: url(#linear-gradient4);
      }

      .st1 {
        fill: url(#linear-gradient1);
      }

      .st1, .st2, .st3 {
        opacity: .2;
      }

      .st2 {
        fill: url(#linear-gradient2);
      }

      .st3 {
        fill: url(#linear-gradient3);
      }

      .st4 {
        fill: url(#linear-gradient);
      }
    </style>
    <linearGradient id="linear-gradient" x1="802.5" y1="802.5" x2="3.7" y2="3.7" gradientUnits="userSpaceOnUse">
      <stop offset="0" stop-color="#8061aa"/>
      <stop offset="0" stop-color="#5e42a5"/>
      <stop offset="1" stop-color="#a764bd"/>
    </linearGradient>
    <linearGradient id="linear-gradient1" x1=".5" y1=".6" x2="793.2" y2="793.3" gradientUnits="userSpaceOnUse">
      <stop offset="0" stop-color="#8061aa"/>
      <stop offset="0" stop-color="#5e42a5"/>
      <stop offset="1" stop-color="#a764bd"/>
    </linearGradient>
    <linearGradient id="linear-gradient2" x1="38.8" y1="-37.6" x2="831.5" y2="755.1" xlink:href="#linear-gradient1"/>
    <linearGradient id="linear-gradient3" x1="-37.7" y1="38.9" x2="755" y2="831.6" xlink:href="#linear-gradient1"/>
    <linearGradient id="linear-gradient4" x1="802.2" y1="802.2" x2="2.9" y2="2.9" gradientUnits="userSpaceOnUse">
      <stop offset="0" stop-color="#8061aa"/>
      <stop offset="0" stop-color="#5e42a5"/>
      <stop offset="1" stop-color="#a764bd"/>
    </linearGradient>
  </defs>
  <g id="Logo">
    <path id="stroke" class="st4" d="M321.7,803c-27.2,0-53.9-11-73.1-30.2L30.2,554.4C11,535.2,0,508.5,0,481.3s1.2-17.9,3.5-26.6L83.4,156.4c4.7-17.5,13.9-33.5,26.7-46.2,12.8-12.8,28.8-22,46.2-26.7L454.7,3.5c8.7-2.3,17.6-3.5,26.6-3.5,27.2,0,53.9,11,73.1,30.2l218.4,218.4c19.2,19.2,30.2,45.8,30.2,73.1s-1.2,17.9-3.5,26.6l-79.9,298.3c-4.7,17.5-13.9,33.5-26.7,46.2-12.8,12.8-28.8,22-46.3,26.7l-298.3,79.9c-8.7,2.4-17.7,3.6-26.6,3.6h0ZM481.3,49.5c-4.7,0-9.3.6-13.8,1.8l-298.3,79.9c-9.1,2.4-17.4,7.2-24.1,13.9-6.7,6.7-11.5,15-13.9,24.1L51.3,467.5c-1.2,4.5-1.8,9.1-1.8,13.8,0,14.2,5.7,28.1,15.7,38.1l218.4,218.4c10,10,23.9,15.7,38.1,15.7s9.3-.6,13.8-1.8l298.3-79.9c9.1-2.4,17.4-7.2,24.1-13.9,6.7-6.7,11.5-15,13.9-24.1l79.9-298.3c1.2-4.5,1.8-9.1,1.8-13.8,0-14.2-5.7-28.1-15.7-38.1l-218.4-218.4c-10-10-23.9-15.7-38.1-15.7h0Z"/>
    <g id="Z">
      <path class="st1" d="M266,565.7c-5.8,0-8.3-2.4-9.4-4.5-2.5-4.7.7-10,1.5-11.1l205.8-306.9v-.2c.8-.9,4.5-5.5,10.1-5.5h63c5.8,0,8.3,2.4,9.4,4.5,2.5,4.7-.8,10.1-1.5,11.2l-205.7,306.8v.2c-.5.6-4.4,5.6-10.1,5.6h-63.1Z"/>
      <path class="st2" d="M211.2,284.8c-3.5,0-12.9,0-14.9-6.3-1.9-5.9,4.9-11.4,7.9-13.5l25.5-17.7h0c2.3-1.6,3.7-4.2,3.7-7s-5.2-15.7-5.2-15.7c-.2-.7-2.3-6.9,1.1-11.7,1.5-2.1,4.7-4.7,10.9-4.7h194.1c8.3,0,13.9,2.4,16.5,7.2,4.2,7.6-1.5,17.3-2.7,19.2l-24,37c-8.4,12.9-24.3,13.2-25,13.2h-187.9,0Z"/>
      <path class="st3" d="M368.7,595c-8.3,0-13.9-2.4-16.5-7.2-4.2-7.6,1.5-17.3,2.7-19.2l24-37c8.4-12.9,24.3-13.2,25-13.2h187.9c3.5,0,12.9,0,14.9,6.3,1.9,5.9-4.9,11.4-7.9,13.5l-25.5,17.7h0c-2.3,1.6-3.7,4.2-3.7,7s5.2,15.8,5.2,15.8h0c.4,1.2,2.2,7.1-1.2,11.8-1.5,2.1-4.7,4.7-10.9,4.7h-194v-.2h0Z"/>
      <path class="st0" d="M659.5,509.8c0-7.1-5.8-12.9-12.9-12.9h-215.8c-23.2,0-9.5-21.3-8.7-22.5l159.7-238.4h0v-.3h0c1.3-2,2.1-4.4,2.1-7,0-7.1-5.8-12.9-12.9-12.9h-87.1l5.8-11.4c.7-1.5,1-3.2,1-5,0-7.1-5.8-12.9-12.9-12.9H217.7c-7.1,0-12.9,5.8-12.9,12.9s.3,3.2.9,4.7l7.5,20.5c3.9,10.6-6.9,18-6.9,18l-56.8,39.4h0c-3.6,2.3-6,6.3-6,10.9,0,7.1,5.8,12.9,12.9,12.9h215.8c23.5,0,9.2,21.8,8.7,22.5l-159.8,238.5h0v.3h-.1c-1.3,2-2.1,4.4-2.1,7,0,7.1,5.8,12.9,12.9,12.9h87.1l-5.8,11.4c-.7,1.5-1,3.2-1,5,0,7.1,5.8,12.9,12.9,12.9h260.4c7.1,0,12.9-5.8,12.9-12.9s-.3-3.2-.9-4.7l-7.5-20.5c-3.9-10.6,6.9-18,6.9-18h0l56.8-39.4h0c3.5-2.4,5.9-6.4,5.9-11h0ZM211.2,280.3c-21.3,0-4.5-11.7-4.5-11.7h0l25.5-17.7h0c3.4-2.3,5.6-6.2,5.6-10.6s-5.5-17.3-5.5-17.3c0,0-3.7-10.5,7.9-10.5h194.1c22.3,0,10.5,18.9,10.1,19.6l-24,37c-7.2,11.1-21.3,11.2-21.3,11.2h-187.9ZM380.8,328.5h0ZM329.1,561.2h-63.1c-10.1,0-4.3-8.8-4.3-8.8h0l205.8-306.9s2.8-3.8,6.4-3.8h63.1c10.1,0,4.3,8.8,4.3,8.8h0l-205.8,306.9s-2.8,3.8-6.4,3.8ZM596.2,534.4h0l-25.5,17.7h0c-3.4,2.3-5.6,6.2-5.6,10.6s5.5,17.3,5.5,17.3c0,0,3.7,10.5-7.9,10.5h-194c-22.3,0-10.5-18.9-10.1-19.6l24-37c7.2-11.1,21.3-11.2,21.3-11.2h187.9c21.2,0,4.4,11.7,4.4,11.7Z"/>
    </g>
  </g>
</svg>