<svg xmlns="http://www.w3.org/2000/svg" version="1.1" viewBox="0 0 1422 800"
     opacity="1"><g stroke-width="1" stroke="oklch(from oklch(0.2582 0.1675 271.19) l c h / 0.05)" fill="none" stroke-linecap="round"><line x1="126" y1="0" x2="0" y2="126"></line><line x1="126" y1="0" x2="252" y2="126"></line><line x1="252" y1="0" x2="378" y2="126"></line><line x1="504" y1="0" x2="378" y2="126"></line><line x1="630" y1="0" x2="504" y2="126"></line><line x1="630" y1="0" x2="756" y2="126"></line><line x1="756" y1="0" x2="882" y2="126"></line><line x1="1008" y1="0" x2="882" y2="126"></line><line x1="1008" y1="0" x2="1134" y2="126"></line><line x1="1260" y1="0" x2="1134" y2="126"></line><line x1="1386" y1="0" x2="1260" y2="126"></line><line x1="1386" y1="0" x2="1512" y2="126"></line><line x1="0" y1="126" x2="126" y2="252"></line><line x1="252" y1="126" x2="126" y2="252"></line><line x1="252" y1="126" x2="378" y2="252"></line><line x1="378" y1="126" x2="504" y2="252"></line><line x1="504" y1="126" x2="630" y2="252"></line><line x1="630" y1="126" x2="756" y2="252"></line><line x1="882" y1="126" x2="756" y2="252"></line><line x1="1008" y1="126" x2="882" y2="252"></line><line x1="1134" y1="126" x2="1008" y2="252"></line><line x1="1134" y1="126" x2="1260" y2="252"></line><line x1="1386" y1="126" x2="1260" y2="252"></line><line x1="1512" y1="126" x2="1386" y2="252"></line><line x1="126" y1="252" x2="0" y2="378"></line><line x1="126" y1="252" x2="252" y2="378"></line><line x1="252" y1="252" x2="378" y2="378"></line><line x1="504" y1="252" x2="378" y2="378"></line><line x1="504" y1="252" x2="630" y2="378"></line><line x1="630" y1="252" x2="756" y2="378"></line><line x1="756" y1="252" x2="882" y2="378"></line><line x1="882" y1="252" x2="1008" y2="378"></line><line x1="1008" y1="252" x2="1134" y2="378"></line><line x1="1134" y1="252" x2="1260" y2="378"></line><line x1="1260" y1="252" x2="1386" y2="378"></line><line x1="1386" y1="252" x2="1512" y2="378"></line><line x1="0" y1="378" x2="126" y2="504"></line><line x1="126" y1="378" x2="252" y2="504"></line><line x1="252" y1="378" x2="378" y2="504"></line><line x1="378" y1="378" x2="504" y2="504"></line><line x1="504" y1="378" x2="630" y2="504"></line><line x1="756" y1="378" x2="630" y2="504"></line><line x1="882" y1="378" x2="756" y2="504"></line><line x1="882" y1="378" x2="1008" y2="504"></line><line x1="1134" y1="378" x2="1008" y2="504"></line><line x1="1134" y1="378" x2="1260" y2="504"></line><line x1="1260" y1="378" x2="1386" y2="504"></line><line x1="1386" y1="378" x2="1512" y2="504"></line><line x1="126" y1="504" x2="0" y2="630"></line><line x1="252" y1="504" x2="126" y2="630"></line><line x1="252" y1="504" x2="378" y2="630"></line><line x1="504" y1="504" x2="378" y2="630"></line><line x1="630" y1="504" x2="504" y2="630"></line><line x1="756" y1="504" x2="630" y2="630"></line><line x1="756" y1="504" x2="882" y2="630"></line><line x1="882" y1="504" x2="1008" y2="630"></line><line x1="1008" y1="504" x2="1134" y2="630"></line><line x1="1134" y1="504" x2="1260" y2="630"></line><line x1="1386" y1="504" x2="1260" y2="630"></line><line x1="1512" y1="504" x2="1386" y2="630"></line><line x1="0" y1="630" x2="126" y2="756"></line><line x1="252" y1="630" x2="126" y2="756"></line><line x1="378" y1="630" x2="252" y2="756"></line><line x1="504" y1="630" x2="378" y2="756"></line><line x1="630" y1="630" x2="504" y2="756"></line><line x1="756" y1="630" x2="630" y2="756"></line><line x1="756" y1="630" x2="882" y2="756"></line><line x1="882" y1="630" x2="1008" y2="756"></line><line x1="1134" y1="630" x2="1008" y2="756"></line><line x1="1134" y1="630" x2="1260" y2="756"></line><line x1="1386" y1="630" x2="1260" y2="756"></line><line x1="1512" y1="630" x2="1386" y2="756"></line><line x1="0" y1="756" x2="126" y2="882"></line><line x1="126" y1="756" x2="252" y2="882"></line><line x1="378" y1="756" x2="252" y2="882"></line><line x1="378" y1="756" x2="504" y2="882"></line><line x1="630" y1="756" x2="504" y2="882"></line><line x1="756" y1="756" x2="630" y2="882"></line><line x1="756" y1="756" x2="882" y2="882"></line><line x1="1008" y1="756" x2="882" y2="882"></line><line x1="1008" y1="756" x2="1134" y2="882"></line><line x1="1260" y1="756" x2="1134" y2="882"></line><line x1="1260" y1="756" x2="1386" y2="882"></line><line x1="1386" y1="756" x2="1512" y2="882"></line></g></svg>