<?xml version="1.0" encoding="UTF-8"?>
<svg width="756" height="420" id="Layer_1" xmlns="http://www.w3.org/2000/svg" version="1.1" viewBox="0 0 378 210">
  <defs>
    <style>
      .st0 {
        fill: #fff;
        fill-rule: evenodd;
      }
    </style>
  </defs>
  <path class="st0" d="M176.7,93.4v3h-7.3v-3h2v-15.2h-3.3v3h-3.1v-5.9h16.3v5.9h-3.1v-3h-3.3v15.2h2Z"/>
  <path class="st0" d="M183,96.4c-.9,0-1.6-.2-2.1-.7-.5-.5-.7-1.1-.7-1.9v-8.5c0-.9.2-1.5.7-2,.5-.5,1.2-.7,2.1-.7h4.6c.9,0,1.6.2,2.1.7.5.5.7,1.1.7,2v5.3h-7.1v3.2h4v-1.6h3.1v1.7c0,.8-.2,1.5-.7,1.9-.5.4-1.2.7-2.1.7h-4.6ZM183.3,85.2v3h4v-3h-4Z"/>
  <path class="st0" d="M195.5,93.7h4.4v-2.6h-4.4v2.6ZM192.6,85.2c0-.9.2-1.6.7-2,.5-.5,1.2-.7,2.2-.7h4.6c.9,0,1.6.2,2.1.7.5.5.7,1.1.7,2v8.5h1.7v2.7h-9.5c-.9,0-1.6-.2-2.1-.7-.5-.5-.7-1.1-.7-1.9v-2.5c0-.9.2-1.5.7-1.9.5-.4,1.2-.6,2.1-.6h4.7v-3.5h-4.2v1.9h-3.1v-1.9h0Z"/>
  <path class="st0" d="M210.2,93.7h2.1v2.7h-2c-1.1,0-1.9-.3-2.4-.8-.6-.5-.8-1.3-.8-2.3v-8h-1.6v-2.7h1.6v-3.9h3.1v3.9h2.1v2.7h-2.1v8.5h0Z"/>
  <path class="st0" d="M213.3,93.7h1.6v-8.5h-1.6v-2.7h7.1c1.1,0,1.9.3,2.4.8.6.5.8,1.3.8,2.3v2.4h-3v-2.9h-2.7v8.5h1.6v2.7h-6.3v-2.7h0Z"/>
  <path class="st0" d="M248.6,96.4v-16.4l-4.4,10.2h-2.3l-4.7-10.2v16.4h-4.9v-3h1.8v-15.2h-1.8v-2.9h5.5l5.2,11.6,5.1-11.6h5.5v2.9h-1.9v15.2h1.9v3h-4.9Z"/>
  <path class="st0" d="M259.3,93.7h1.6v2.7h-6.3v-2.7h1.6v-8.5h-1.6v-2.7h4.6v11.2ZM255.9,79c0-.5.2-.9.5-1.2.3-.3.7-.5,1.2-.5s.9.2,1.2.5c.3.3.5.7.5,1.2,0,.5-.2.9-.5,1.2-.3.3-.7.5-1.2.5-.5,0-.9-.2-1.2-.5-.3-.3-.5-.7-.5-1.2h0Z"/>
  <path class="st0" d="M265.2,96.4c-.9,0-1.6-.2-2.1-.7-.5-.5-.7-1.1-.7-1.9v-8.5c0-.9.2-1.5.7-2,.5-.5,1.2-.7,2.1-.7h4.6c.9,0,1.6.2,2.1.7.5.5.7,1.1.7,2v5.3h-7.1v3.2h4v-1.6h3.1v1.7c0,.8-.2,1.5-.7,1.9-.5.4-1.2.7-2.1.7h-4.6,0ZM265.5,85.2v3h4v-3h-4Z"/>
  <path class="st0" d="M275.2,79c0-.5.2-.9.5-1.2.3-.3.7-.5,1.2-.5s.9.2,1.2.5c.3.3.5.7.5,1.2s-.2.9-.5,1.2c-.3.3-.7.5-1.2.5-.5,0-.9-.2-1.2-.5-.3-.3-.5-.7-.5-1.2h0ZM275.7,85.2h-1.6v-2.7h4.6v16.9c0,.8-.2,1.5-.7,1.9-.5.4-1.2.7-2.1.7h-1.9v-2.7h1.6v-14.1Z"/>
  <path class="st0" d="M288.7,85.2h-4v2.8h4.3c.9,0,1.6.2,2.1.7.5.4.7,1.1.7,1.9v3.1c0,.8-.2,1.5-.7,1.9-.5.4-1.2.7-2.1.7h-7.3v-4.3h2.8v1.6h4.3v-3.1h-4.3c-.9,0-1.6-.2-2-.7-.5-.5-.7-1.1-.7-2v-2.7c0-.9.2-1.5.7-2,.5-.5,1.2-.7,2.1-.7h7s0,3.9,0,3.9h-2.7v-1.3h0Z"/>
  <path class="st0" d="M295,78h-1.6v-2.7h4.7v13l4.2-5.8h3.4v2.7h-1.9l-2.8,3.8,4.1,4.6h1.8v2.7h-3.4l-5.3-6v6h-4.7v-2.7h1.6v-15.7Z"/>
  <path class="st0" d="M312.1,93.7h1.6v2.7h-6.3v-2.7h1.6v-8.5h-1.6v-2.7h4.6v11.2ZM308.7,79c0-.5.2-.9.5-1.2.3-.3.7-.5,1.2-.5s.9.2,1.2.5c.3.3.5.7.5,1.2,0,.5-.2.9-.5,1.2-.3.3-.7.5-1.2.5-.5,0-.9-.2-1.2-.5-.3-.3-.5-.7-.5-1.2h0Z"/>
  <path class="st0" d="M166.5,111.7h1v1h-2.9v-1h.8v-4.9h-.8v-1h1.9v5.9h0ZM165.1,104.5c0-.2,0-.4.2-.6.2-.2.3-.2.5-.2s.4,0,.5.2c.2.2.2.3.2.6s0,.4-.2.5c-.1.2-.3.2-.6.2s-.4,0-.6-.2c-.1-.1-.2-.3-.2-.6Z"/>
  <path class="st0" d="M176.2,105.8c.5,0,.8.1,1,.3.2.2.4.5.4,1v4.6h.8v1h-2.7v-1h.8v-4.3c0-.2,0-.4-.1-.5,0,0-.2-.1-.5-.1h-2.1v4.9h.8v1h-2.7v-1h.8v-4.9h-2.7v4.9h.8v1h-2.7v-1h.8v-4.9h-.8v-1h8.2,0Z"/>
  <path class="st0" d="M179.8,112.2c0-.2,0-.4.2-.5.1-.1.3-.2.5-.2s.4,0,.5.2c.1.1.2.3.2.5s0,.4-.2.5c-.1.1-.3.2-.5.2s-.4,0-.5-.2c-.1-.1-.2-.3-.2-.5h0Z"/>
  <path class="st0" d="M188.7,112.7l-1.7-9.5h-1.1v-1h3.1v1h-.8l1.3,7.4,1.7-8.4h1.5l1.5,8.4,1.5-7.4h-.9v-1h3.1v1h-1.2l-1.9,9.5h-1.4l-1.6-8.7-1.8,8.7h-1.3Z"/>
  <path class="st0" d="M199.8,111.7h1v1h-2.9v-1h.8v-4.9h-.8v-1h1.9v5.9h0ZM198.4,104.5c0-.2,0-.4.2-.6.2-.2.3-.2.5-.2s.4,0,.5.2c.2.2.2.3.2.6s0,.4-.2.5c-.1.2-.3.2-.6.2s-.4,0-.6-.2c-.1-.1-.2-.3-.2-.6h0Z"/>
  <path class="st0" d="M203.1,111.1c0,.2,0,.4.1.5,0,0,.3.1.5.1h.3v1h-.7c-.4,0-.8-.1-1-.3-.2-.2-.4-.5-.4-1v-4.6s-.9,0-.9,0v-1h.9v-2.2h1.1v2.2h1v1h-1v4.3h0Z"/>
  <path class="st0" d="M205,107.1c0-.4.1-.7.4-1,.2-.2.6-.3,1-.3h2.1c.5,0,.8.1,1,.3.2.2.4.5.4,1v4.3c0,.4-.1.7-.4,1-.2.2-.6.3-1,.3h-2.1c-.4,0-.8-.1-1-.3-.2-.2-.4-.5-.4-1v-4.3ZM208.1,106.8h-1.4c-.3,0-.4,0-.5.1,0,0-.1.2-.1.5v3.7c0,.2,0,.4.1.5,0,0,.3.1.5.1h1.4c.3,0,.4,0,.5-.1,0,0,.1-.2.1-.5v-3.7c0-.2,0-.4-.1-.5,0,0-.3-.1-.5-.1Z"/>
  <path class="st0" d="M211.6,103.2h-1v-1h2.2v9.5h.9v1h-3v-1h1v-8.5Z"/>
  <path class="st0" d="M215.9,112.7c-.5,0-.8-.1-1-.3-.2-.2-.4-.5-.4-1v-4.3c0-.4.1-.7.4-1,.2-.2.6-.3,1-.3h2.4v-2.6h-.8v-1h1.9v9.5h.8v1h-4.3ZM215.6,107.4v3.7c0,.2,0,.4.1.5,0,0,.3.1.5.1h2v-4.9h-2c-.3,0-.4,0-.5.1,0,0-.1.2-.1.5Z"/>
  <path class="st0" d="M222.6,112.7c-.5,0-.8-.1-1-.3-.2-.2-.4-.5-.4-1v-1.3c0-.4.1-.7.4-1s.6-.3,1-.3h2.3v-1.4c0-.2,0-.4-.1-.5,0,0-.3-.1-.5-.1h-1.2c-.3,0-.4,0-.5.1,0,0-.1.2-.1.5v.6h-1.1v-.9c0-.4.1-.7.4-1,.2-.2.6-.3,1-.3h1.6c.5,0,1,.1,1.3.4.3.3.4.7.4,1.2v4.3h.8v1h-4.2,0ZM222.3,110.4v.7c0,.2,0,.4.1.5,0,0,.3.1.5.1h2v-1.9h-2c-.3,0-.4,0-.5.1,0,0-.1.2-.1.5Z"/>
  <path class="st0" d="M232.8,112.7c-.5,0-.9-.1-1.2-.4-.3-.3-.4-.7-.4-1.2v-7.3c0-.5.1-.9.4-1.2.3-.3.6-.4,1.2-.4h4.6v2.8h-1.2v-1.7h-3.1c-.2,0-.4,0-.5.2,0,.1-.2.4-.2.7v6.7c0,.3,0,.5.2.7.1.1.3.2.5.2h3.1v-3.8h-2.1v-1.1h3.3v5.9h-4.6Z"/>
  <path class="st0" d="M238.5,107.1c0-.4.1-.7.4-1,.2-.2.6-.3,1-.3h2.1c.5,0,.8.1,1,.3.2.2.4.5.4,1v4.3c0,.4-.1.7-.4,1-.2.2-.6.3-1,.3h-2.1c-.5,0-.8-.1-1-.3-.2-.2-.4-.5-.4-1v-4.3ZM241.6,106.8h-1.4c-.3,0-.4,0-.5.1,0,0-.1.2-.1.5v3.7c0,.2,0,.4.1.5,0,0,.3.1.5.1h1.4c.3,0,.4,0,.5-.1,0,0,.1-.2.1-.5v-3.7c0-.2,0-.4-.1-.5,0,0-.3-.1-.5-.1Z"/>
  <path class="st0" d="M252.6,105.8c.5,0,.8.1,1,.3.2.2.4.5.4,1v4.6h.8v1h-2.7v-1h.8v-4.3c0-.2,0-.4-.1-.5,0,0-.2-.1-.5-.1h-2.1v4.9h.8v1h-2.7v-1h.8v-4.9h-2.7v4.9h.8v1h-2.7v-1h.8v-4.9h-.8v-1h8.2Z"/>
  <path class="st0" d="M259.2,105.8c.5,0,.8.1,1,.3.2.2.4.5.4,1v4.3c0,.4-.1.7-.4,1-.2.2-.6.3-1,.3h-3.5v-9.5h-1v-1h2.2v3.6h2.4ZM259.5,111.1v-3.7c0-.2,0-.4-.1-.5,0,0-.3-.1-.5-.1h-2v4.9h2c.3,0,.4,0,.5-.1,0,0,.1-.2.1-.5Z"/>
  <path class="st0" d="M263.6,111.7h.8v1h-2.7v-1h.8v-4.9h-.8v-1h3c.5,0,.8.1,1,.3.2.2.4.5.4,1v1.2h-1.1v-.9c0-.2,0-.4-.1-.5,0,0-.3-.1-.5-.1h-.8v4.9h0Z"/>
  <path class="st0" d="M267,107.1c0-.4.1-.7.4-1,.2-.2.6-.3,1-.3h2.1c.4,0,.8.1,1,.3.2.2.4.5.4,1v4.3c0,.4-.1.7-.4,1-.2.2-.6.3-1,.3h-2.1c-.5,0-.8-.1-1-.3-.2-.2-.4-.5-.4-1v-4.3h0ZM270.1,106.8h-1.4c-.3,0-.4,0-.5.1,0,0-.1.2-.1.5v3.7c0,.2,0,.4.1.5,0,0,.3.1.5.1h1.4c.3,0,.4,0,.5-.1,0,0,.1-.2.1-.5v-3.7c0-.2,0-.4-.1-.5,0,0-.3-.1-.5-.1Z"/>
  <path class="st0" d="M275.2,112.7l-1.9-5.9h-.8v-1h2.7v1h-.8l1.2,4.1,1.3-5.1h.8l1.4,5,1.1-4h-.8v-1h2.7v1h-.8l-1.7,5.9h-.8l-1.4-5-1.4,5h-.8Z"/>
  <path class="st0" d="M284.6,111.7h1v1h-2.9v-1h.8v-4.9h-.8v-1h1.9v5.9h0ZM283.1,104.5c0-.2,0-.4.2-.6.1-.2.3-.2.5-.2s.4,0,.5.2c.2.2.2.3.2.6s0,.4-.2.5c-.1.2-.3.2-.6.2s-.4,0-.6-.2c-.1-.1-.2-.3-.2-.6h0Z"/>
  <path class="st0" d="M287.7,112.7c-.4,0-.8-.1-1-.3-.2-.2-.4-.5-.4-1v-4.3c0-.4.1-.7.4-1,.2-.2.6-.3,1-.3h3.2v2.1h-1v-1.1h-1.8c-.2,0-.4,0-.5.1,0,0-.1.3-.1.5v3.7c0,.2,0,.4.1.5,0,0,.3.1.5.1h1.8v-1h1v2h-3.2Z"/>
  <path class="st0" d="M291.9,112.7v-1l3.5-4.9h-2.4v1h-1.1v-2h4.9v1l-3.5,4.9h2.6v-1.1h1.1v2.1h-5.1Z"/>
  <path class="st0" d="M299.5,112.7c-.5,0-.8-.1-1-.3-.2-.2-.4-.5-.4-1v-1.3c0-.4.1-.7.4-1,.2-.2.6-.3,1-.3h2.3v-1.4c0-.2,0-.4-.1-.5,0,0-.3-.1-.5-.1h-1.2c-.3,0-.4,0-.5.1,0,0-.1.2-.1.5v.6s-1.1,0-1.1,0v-.9c0-.4.1-.7.4-1,.2-.2.6-.3,1-.3h1.6c.5,0,1,.1,1.3.4.3.3.4.7.4,1.2v4.3h.8v1h-4.2ZM299.2,110.4v.7c0,.2,0,.4.1.5,0,0,.3.1.5.1h2v-1.9h-2c-.3,0-.4,0-.5.1,0,0-.1.2-.1.5Z"/>
  <path class="st0" d="M168.1,137.4l-2.1-11.2h-1.6v-2.7h4.4l1.5,10.7,2.7-10.7h3l2.7,10.7,1.6-10.7h4.3v2.7h-1.6l-2.2,11.2h-3.6l-2.8-10-2.7,10h-3.5Z"/>
  <path class="st0" d="M206.2,116.3v6.4h-3v-3.5h-5.2c-.4,0-.8.1-1,.4-.2.3-.3.7-.3,1.3v11.8c0,.6.1,1,.3,1.3.2.3.5.4,1,.4h5.2v-6.2h-3.5v-2.9h6.7v12.1h-9.4c-1.1,0-2-.3-2.7-1-.7-.7-1-1.6-1-2.8v-13.4c0-1.2.3-2.1,1-2.8.7-.7,1.5-1,2.7-1h9.2Z"/>
  <path class="st0" d="M211.7,134.7h4.1v-8.5h-4.1v8.5ZM219,134.7h1.6v2.7h-8.7c-1.1,0-1.9-.3-2.4-.8-.6-.5-.8-1.3-.8-2.3v-7.6c0-1,.3-1.8.8-2.3.6-.5,1.4-.8,2.4-.8h3.9v-4.6h-1.8v-2.7h4.9v18.4h0Z"/>
  <path class="st0" d="M222.8,143l3.4-8.5-3.4-8.3h-1.6v-2.7h3.7l2.9,7.5,2.8-7.5h3.5v2.7h-1.6l-6.7,16.8h-2.9Z"/>
  <path class="st0" d="M234.6,134.7h1.6v-8.5h-1.6v-2.7h9c1.1,0,1.9.3,2.4.8.6.5.8,1.3.8,2.3v8.1h1.7v2.7h-4.8v-11.2h-4.5v8.5h1.6v2.7h-6.3v-2.7h0Z"/>
  <path class="st0" d="M254,134.7h1.6v2.7h-6.3v-2.7h1.6v-8.5h-1.6v-2.7h4.6v11.2ZM250.6,120c0-.5.2-.9.5-1.2.3-.3.7-.5,1.2-.5s.9.2,1.2.5c.3.3.5.7.5,1.2s-.2.9-.5,1.2c-.3.3-.7.5-1.2.5s-.9-.2-1.2-.5c-.3-.3-.5-.7-.5-1.2Z"/>
  <path class="st0" d="M64.2,61.8v86.3h89.7V61.8h-89.7ZM106.3,135.3v6.8h-34v-33.9h7.4v27.1h6.3v-11.4h6.8v11.4h6.2v-27.1h7.4v27.1ZM106.3,75.8v12.1h-7.4v-12.1h-6.3v42h-6.8v-42h-6.2v12.1h-7.4v-18.9h34v6.8ZM146.1,115.7h-26.7v19.6h19.9v-6.6h-11.6v-6.9h18.4v20.2h-34v-33.9h34v7.5ZM146.1,75.8v27.1h-7.4v-27.1h-6.3v11.4h-6.8v-11.4h-6.2v27.1h-7.4v-33.9h34v6.8Z"/>
</svg>