<?xml version="1.0" encoding="UTF-8"?>
<svg width="756" height="420" id="Layer_1" xmlns="http://www.w3.org/2000/svg" version="1.1" viewBox="0 0 378 210">
  <defs>
    <style>
      .st0 {
        fill: #fff;
      }
    </style>
  </defs>
  <path class="st0" d="M183.1,108.5h-4.5v-33.4l11.6-11.4,3.2,3.1-10.3,10.1v31.6Z"/>
  <path class="st0" d="M166.8,108.5h-4.5v-40.2l16.3-16,3.2,3.1-15,14.7v38.4Z"/>
  <path class="st0" d="M174.9,108.5h-4.5v-36.8l13.9-13.7,3.2,3.1-12.6,12.4v35Z"/>
  <path class="st0" d="M215.6,108.5h-4.5v-29.5l-12.5-12.2,3.2-3.1,13.8,13.5v31.3Z"/>
  <path class="st0" d="M207.5,108.5h-4.5v-26l-10.2-10,3.2-3.1,11.5,11.3v27.8Z"/>
  <path class="st0" d="M190.1,75.1l-3.2,3.1,7.9,7.8v18.1h-8.1v4.4h12.6v-24.3l-9.2-9.1Z"/>
  <path class="st0" d="M154.8,137.5h-3.6v-7.2l-3.2,4.9h0s-2,0-2,0h0s-3.3-5-3.3-5v7.2s-3.6,0-3.6,0v-14.3h2.7l5.2,7.6,5.2-7.6h2.7v14.3Z"/>
  <path class="st0" d="M172.2,130.8c0,4.4-2.6,7-6.8,7s-6.8-2.5-6.8-7v-7.6h3.6v7.7c0,2.2,1.2,3.6,3.1,3.6s3.2-1.4,3.2-3.6v-7.7h3.6v7.6Z"/>
  <path class="st0" d="M188.1,137.5h-12.6v-1.7l7.2-9.5h-6.9v-3.1h12.1v1.7l-6.9,9.5h7.1v3.1Z"/>
  <path class="st0" d="M195.3,128.9h6.5v3h-6.5v2.5h7.4v3.1h-11v-14.3h11v3.1h-7.4v2.6Z"/>
  <path class="st0" d="M219.4,130.8c0,4.4-2.6,7-6.8,7s-6.8-2.5-6.8-7v-7.6h3.6v7.7c0,2.2,1.2,3.6,3.1,3.6s3.2-1.4,3.2-3.6v-7.7h3.6v7.6Z"/>
  <path class="st0" d="M239,137.5h-3.6v-7.2l-3.2,4.9h0s-2,0-2,0h0s-3.3-5-3.3-5v7.2s-3.6,0-3.6,0v-14.3h2.7l5.2,7.6,5.2-7.6h2.7v14.3Z"/>
  <path class="st0" d="M151.6,147.6h-3.6c-.2-1.1-.9-1.8-2.4-1.8s-2.1.5-2.1,1.4.6,1.1,1.7,1.3l2,.5c2.7.6,4.4,1.6,4.4,4.1s-2.4,4.7-6,4.7-6.2-1.5-6.6-5.1h3.6c.2,1.3,1.4,2,3.1,2s2.1-.5,2.1-1.3-.3-1-1.5-1.2l-2.4-.5c-2.9-.6-4.2-1.9-4.2-4.2s2.4-4.7,5.8-4.7,5.9.9,6.2,4.8Z"/>
  <path class="st0" d="M170.8,150.3c0,4.2-3.3,7.5-7.7,7.5s-7.7-3.3-7.7-7.5,3.3-7.5,7.7-7.5,7.7,3.3,7.7,7.5ZM167.2,150.3c0-2.3-1.7-4.1-4.1-4.1s-4.1,1.9-4.1,4.1,1.7,4.1,4.1,4.1,4.1-1.9,4.1-4.1Z"/>
  <path class="st0" d="M181.1,143.1c3.8,0,6.2,2,6.2,5.2s-2.5,5.4-6.5,5.4h-2v3.6h-3.6v-14.3h5.9ZM181.1,150.7c1.6,0,2.6-.9,2.6-2.3s-1.1-2.1-2.6-2.1h-2.2v4.4h2.2Z"/>
  <path class="st0" d="M206.3,150.3c0,4.2-3.3,7.5-7.7,7.5s-7.7-3.3-7.7-7.5,3.3-7.5,7.7-7.5,7.7,3.3,7.7,7.5ZM202.6,150.3c0-2.3-1.7-4.1-4.1-4.1s-4.1,1.9-4.1,4.1,1.7,4.1,4.1,4.1,4.1-1.9,4.1-4.1Z"/>
  <path class="st0" d="M217.1,146.3v11.1h-3.6v-11.1h-4.7v-3.2h12.9v3.2h-4.7Z"/>
  <path class="st0" d="M239,150.8c0,4.4-2.6,7-6.8,7s-6.8-2.5-6.8-7v-7.6h3.6v7.7c0,2.2,1.2,3.6,3.1,3.6s3.2-1.4,3.2-3.6v-7.7h3.6v7.6Z"/>
</svg>