<svg width="71" height="9" fill="none" xmlns="http://www.w3.org/2000/svg"><path d="M1.294.072H0v8.82h1.294V.072zM34.87 8.928h1.295V5.163h3.775v-1.29h-3.775V.072h-1.294v3.8h-3.81v1.291h3.81v3.765zM54.787 9c2.3 0 3.667-1.434 3.667-3.8V0H57.16v5.235c0 1.147-.396 2.51-2.337 2.51-1.941 0-2.337-1.363-2.337-2.51V0h-1.294v5.235C51.156 7.602 52.522 9 54.787 9zm-40.91-5.235c0-1.147.395-2.51 2.336-2.51 1.941 0 2.337 1.363 2.337 2.51v5.27h1.294V3.802C19.88 1.398 18.514 0 16.214 0c-2.266 0-3.632 1.398-3.632 3.8v5.236h1.294V3.765zM71 .072h-1.294v8.82H71V.072z" fill="#fff"/></svg>