<?xml version="1.0" encoding="UTF-8"?>
<svg width="756" height="420" id="Layer_1" xmlns="http://www.w3.org/2000/svg" version="1.1" viewBox="0 0 378 210">
  <defs>
    <style>
      .st0 {
        fill: #fff;
      }
    </style>
  </defs>
  <path class="st0" d="M129.4,139.1h0c0,1.2-.2,1.7-.7,2.2s-1.2.7-2.4.7h-2.6v2.6h3.3c2.4,0,5-1.4,5-4.8v-.5h-2.6v-.2Z"/>
  <path class="st0" d="M207.2,94.4v21.5c0,2.6-1.4,4.3-3.8,4.3s-3.8-1.7-3.8-4.3v-21.5h-3.1v21.3c0,2.4.7,4.3,2.2,5.5,1.2,1.2,3.1,1.9,5,1.9s3.6-.7,5-1.9c1.4-1.4,2.2-3.1,2.2-5.5v-21.3h-3.6Z"/>
  <path class="st0" d="M190.9,144.6l.2,9.8,4.1-3.8c-.2,3.8-.7,4.8-1.4,5.7-.5.7-1.4,1-2.6,1s-2.2-.2-2.6-1c-1.2-1.4-1.4-2.6-1.7-11.5,0-9.1.5-9.8,1.7-11.2.5-.7,1.4-1,2.6-1s2.2.2,2.6,1c.7,1,1.2,1.7,1.4,4.3v.5h3.1v-.7c-.2-3.6-1-5-2.4-6.2-1.2-1.2-2.9-1.9-5-1.9s-3.8.7-5,1.9c-1.9,1.9-2.4,3.4-2.4,10.3h0v5.5c.2,7.4.7,9.1,2.4,11,1.2,1.2,2.9,1.9,5,1.9s3.8-.7,5-1.9c1.9-1.9,2.4-3.4,2.4-10.5h0v-3.1h-7.4Z"/>
  <path class="st0" d="M190.4,144.6h7.9v2.6c0,.2-7.9,7.4-7.9,7.4v-10Z"/>
  <path class="st0" d="M172.5,148.4h-.5c-.5,0-1,0-2.2.2h-.7c-3.3,0-4.5-.5-5.5-1.4-.5-.5-1-1.2-1.2-2.2v-.5h-2.9v.7c0,1.7.7,3.4,2.2,4.5,1.7,1.4,3.3,2.2,7.7,2.2h1.9c.5,0,1-.2,1.2-.2h.7l-.7-3.4Z"/>
  <path class="st0" d="M210.5,85.7h-32.3v3.1h32.3v-3.1Z"/>
  <path class="st0" d="M135.9,138.6c-.5-6.9-4.1-7.9-7.4-7.9h-6.5v29.2h3.3v-11.5h4.1l1.9-.2c2.9-1,4.5-3.4,4.8-7.9v-.5c0-.5-.2-1.2-.2-1.2ZM125.3,145.3v-11.7h3.3c2.9,0,4.1,1.7,4.1,6-.2,4.1-1.4,5.7-4.1,5.7h-3.3Z"/>
  <path class="st0" d="M164.8,159.4l1-4.8,2.4-12.7h1.9l3.3,17.5h3.1l-6-28.7h-2.4l-6.2,28.7h2.9Z"/>
  <path class="st0" d="M149.8,159.7l-4.8-13.6h-2.4l4.8,13.6h2.4Z"/>
  <path class="st0" d="M206.5,159.7l1-5,2.4-12.4h1.4l3.4,17.5h3.4l-6.2-29.2h-2.2l-6.2,29.2h3.1Z"/>
  <path class="st0" d="M153.6,91v21.8c0,2.6-1.4,4.3-3.8,4.3s-3.8-1.7-3.8-4.3v-21.8h-3.1v21.5c0,2.4.7,4.3,2.2,5.5,1.2,1.2,3.1,1.9,5,1.9s3.6-.7,5-1.9c1.4-1.4,2.2-3.1,2.2-5.5v-21.5s-3.6,0-3.6,0Z"/>
  <path class="st0" d="M164.4,119.7h12.2v-3.1h-9.1v-25.6h-3.1s0,28.7,0,28.7Z"/>
  <path class="st0" d="M138.7,116.8c-.5-.2-.7-.2-1.2-.5-1-.7-1.4-1.7-1.9-5v-.7c-.7-6-1.4-7.4-3.3-8.9-.5-.2-.7-.5-1.2-.7l4.8-9.8h-3.6l-7.2,14.1v-14.1h-3.1v28.7h3.1v-8.1l2.9-5.5,1.4-2.6c.2.2.5.2.7.5,1,.7,1.4,1.7,1.9,5v.7c.7,6,1.4,7.4,3.3,8.9.7.7,1.7,1,2.9,1.2h1v-2.9l-.5-.2Z"/>
  <path class="st0" d="M183.7,123.3h3.1v-24.2h5.5v-4.8h-14.4v3.1h5.5v25.8h.2Z"/>
  <path class="st0" d="M254.6,91l-.5.2c-1.2.2-1.9.7-2.6,1.2-1.9,1.4-2.6,3.1-3.4,9.1h0c-.5,3.8-1,4.5-1.9,5.5-.2.2-.5.5-1,.5-.2-.2-.7-.2-.7-.5-1-.7-1.4-1.7-1.9-5v-.7c-.7-6-1.4-7.4-3.4-8.9-.7-.7-1.7-1-2.6-1.2l-.7-.2-1.4,2.9,1,.2c.7,0,1.2.2,1.7.7,1,.7,1.4,1.7,1.9,5v.7c.7,6,1.4,7.4,3.4,8.9.5.5,1,.7,1.4,1v9.6h3.1v-9.8c.5-.2,1-.5,1.2-.7,1.9-1.4,2.6-3.1,3.4-9.1v-.2c.5-3.8,1-4.5,1.9-5.5.5-.5,1-.7,1.7-.7l1-.2-1.4-2.6Z"/>
  <path class="st0" d="M157.4,65.4v-2.6c-.2-7.4-.7-9.1-2.4-11-1.2-1.2-2.9-1.9-5-1.9s-3.8.7-5,1.9c-1.9,1.9-2.4,3.3-2.4,10.5h0v4.3c.2,7.4.7,9.1,2.4,11,1.2,1.2,2.9,1.9,5,1.9s3.8-.7,5-1.9c1.9-1.9,2.4-3.3,2.4-10.5h0v-1.7ZM152.9,75h0c-.7.7-1.7,1.2-2.9,1.2s-2.2-.2-2.9-1h0c-1-1-1.4-1.2-1.4-9.8s.5-10,1.7-11.5c.5-.7,1.4-1,2.6-1s2.2.2,2.6,1c1.2,1.4,1.4,2.6,1.7,11.5-.2,8.1-.7,8.9-1.4,9.6Z"/>
  <path class="st0" d="M184,50.3h-.5c-.5,0-1.2,0-1.7.2-1,.2-1.9.5-2.4,1.2-1.9,1.4-2.6,2.9-3.3,8.6v.5c-.5,3.1-1,4.1-1.4,4.8-.5-.7-1-1.9-1.4-4.8l-.2-.7c-.7-5.7-1.4-6.9-3.1-8.4-.7-.5-1.4-1-2.4-1.2-.5-.2-1.2-.2-1.7-.2h-1v28.5h3.1v-24.6c1,.7,1.4,1.7,1.9,5.3l.2.7c.7,4.5,1.2,6,2.4,7.4.2.2.5.5.7.7.2.2.5.5,1,.7l.2.2.2-.2c.5-.2,1-.5,1.2-.7s.5-.5.7-.5c1.4-1.4,1.9-3.1,2.9-8.1l.2-.5c.5-3.6,1.2-4.5,2.2-5.3v24.9h3.1v-28.5h-1Z"/>
  <path class="st0" d="M136.4,63h0c-.2-7.4-.7-9.1-2.4-10.8s-2.9-1.7-4.8-1.7h-7.2v28.5h6.9c1.9,0,3.8-.7,4.8-1.7,1.9-1.7,2.4-3.3,2.4-10.3h0l.2-4.1ZM125.1,75.9v-22.5h3.6c1.2,0,2.2.2,2.6,1,1.2,1.2,1.7,2.4,1.7,10.3s-.5,9.1-1.7,10.3-1.4,1-2.6,1h-3.6Z"/>
  <path class="st0" d="M150.7,147.5c2.4-1,3.8-3.4,4.1-7.4v-1.7c-.5-6.7-3.8-7.7-7.2-7.7h-6.5v28.7h2.9v-11.5h3.8l3.8,11.5h3.1l-4.1-12ZM152.1,139.6c-.2,4.3-1.4,6-4.3,6h-3.6v-12h3.6c2.9-.2,4.1,1.4,4.3,6Z"/>
  <path class="st0" d="M235.4,119.7h-.5c-.5,0-.7-.2-1-.5-.5-.5-.7-.7-1.2-1.4-.2-.5-.5-1.4-.7-2.6l-.2-.7c-1-4.3-1.7-5.7-2.4-6.7,1.9-1.2,2.9-3.6,3.1-7.2v-1.7c-.5-6.9-4.1-7.9-7.4-7.9h-6.7v28.7h3.4v-11h3.4c.5,0,1.2.2,1.4.5.7.7,1.2,1.2,1.9,4.1l.2.7c.7,2.9,1.2,4.5,1.9,5.7.5.7,1,1.2,1.7,1.9.7.5,1.4.7,2.4,1h1l-.2-2.9ZM221.8,94.1h3.4c2.9,0,4.1,1.7,4.1,6-.2,4.1-1.4,5.7-4.1,5.7h-3.4v-11.7Z"/>
</svg>