<?xml version="1.0" encoding="UTF-8"?>
<svg width="756" height="420" id="Layer_1" xmlns="http://www.w3.org/2000/svg" version="1.1" viewBox="0 0 378 210">
  <defs>
    <style>
      .st0 {
        fill: #fff;
      }
    </style>
  </defs>
  <path class="st0" d="M300.6,110.6v3.1c0,1.1-.6,1.4-1.1,1.4s-1.1-.3-1.1-1.4v-3.1c0-1.1.6-1.4,1.1-1.4s1.1.3,1.1,1.4ZM302,111c0-2.3-1.3-3-2.5-3s-2.5.8-2.5,3v2.3c0,2.3,1.3,3,2.5,3s2.5-.8,2.5-3v-2.3ZM293.9,113.8c0,1-.6,1.3-1,1.3s-1-.3-1-1.3v-3.3c0-1,.6-1.3,1-1.3s1,.3,1,1.3v3.3ZM290.8,117.4c-.2,0-.2.2-.2.3.3.8,1,1.6,2.2,1.6s2.5-.8,2.5-3v-7.9c0-.2,0-.3-.3-.3h-.7c-.2,0-.3,0-.3.3v.2c-.2-.3-.6-.6-1.2-.6-1.2,0-2.2.8-2.2,2.8v2.8c0,2,1,2.9,2.2,2.8.6,0,1-.3,1.2-.6v1c0,.9-.5,1.3-1.1,1.3s-.8-.2-1-.7c0-.2-.2-.2-.4-.2l-.7.2ZM287.5,110.6v.3c0,.2,0,.3-.3.3h-1.5c-.2,0-.3,0-.3-.3v-.3c0-.9.5-1.3,1.1-1.3s1.1.4,1.1,1.3ZM284,113.3c0,2.3,1.3,3,2.5,3,1.8,0,2.4-1.6,2.4-2.5,0-.2,0-.3-.3-.3h-.7c-.3,0-.3.1-.3.4,0,.7-.5,1.1-1.1,1.1s-1.1-.4-1.1-1.3v-1c0-.2,0-.3.3-.3h2.9c.3,0,.3,0,.3-.3v-1.1c0-2.3-1.3-3-2.5-3s-2.5.8-2.5,3v2.3ZM281.2,116.3h.7c.2,0,.3,0,.3-.3v-7.6c0-.2,0-.3-.3-.3h-.7c-.2,0-.3,0-.3.3v7.6c0,.2,0,.3.3.3ZM280.8,106.5c0,.4.3.8.8.8s.8-.4.8-.8-.4-.8-.8-.8-.8.3-.8.8ZM275.2,116.3h.7c.2,0,.3,0,.3-.3v-2.1l.5-.9,1.4,3.1c.1.2.2.2.4.2h.9c.1,0,.3,0,.2-.3l-1.9-4.3,1.8-3.3c.2-.3,0-.3-.1-.3h-.9c-.2,0-.3,0-.4.2l-1.8,3.2v-6.5c0-.2,0-.3-.3-.3h-.7c-.2,0-.3,0-.3.3v10.9c0,.2,0,.3.3.3ZM270.2,110.1c0-.4.3-.8.7-.8.5,0,.9.4.9.9,0,.3,0,.4.3.4h.6c.2,0,.3,0,.3-.3,0-1.2-.9-2.3-2.1-2.3s-2.2.9-2.1,2.2c0,2.2,3.6,2.3,3.2,4.1,0,.4-.5.8-1,.8s-1-.5-1.1-1c0-.2,0-.3-.3-.3h-.7c-.2,0-.3,0-.3.3,0,1,.9,2.3,2.4,2.3s2.5-1.2,2.4-2.5c-.2-2.1-3.2-2.5-3.2-3.7ZM264.6,107.2h.5c.2,0,.2,0,.3-.3l.5-1.4c.1-.3,0-.4-.2-.4h-.8c-.2,0-.3,0-.3.3v1.6c0,.1,0,.2.2.2ZM263.9,110.5c0-1,.6-1.3,1-1.3s1,.3,1,1.3v5.5c0,.2,0,.3.3.3h.7c.2,0,.3,0,.3-.3v-5.2c0-2-1-2.9-2.2-2.8-.6,0-1,.3-1.2.6v-.2c0-.2,0-.3-.3-.3h-.7c-.2,0-.3,0-.3.3v7.6c0,.2,0,.3.3.3h.7c.2,0,.3,0,.3-.3v-5.5ZM258.4,114.6l-1.1-6.3c0-.2-.2-.2-.4-.2h-.7c-.2,0-.3,0-.3.3l1.7,8.4c0,.4.1,1.3-.7,1.3-.2,0-.3,0-.3.3v.6c0,.2,0,.3.3.3,1.3,0,2.1-.4,2.5-2.8l1.6-8.2c0-.3-.1-.3-.3-.3h-.7c-.2,0-.3,0-.4.2l-1.1,6.3c0,0-.1,0-.1,0ZM254.9,109.4c0-.1,0-.2,0-.4v-.7c0-.2,0-.3-.3-.3h-3.8c-.2,0-.3,0-.3.3v.6c0,.2,0,.3.3.3h2.6c0,0,.1,0,0,.1l-2.9,5.4c0,.1,0,.2,0,.4v.7c0,.2,0,.3.3.3h3.8c.2,0,.3,0,.3-.3v-.6c0-.2,0-.3-.3-.3h-2.6c0,0-.1,0,0-.1l2.9-5.5ZM246.3,110.1c0-.4.3-.8.7-.8.5,0,.9.4.9.9,0,.3,0,.4.3.4h.6c.2,0,.3,0,.3-.3,0-1.2-.9-2.3-2.1-2.3s-2.2.9-2.1,2.2c0,2.2,3.6,2.3,3.2,4.1,0,.4-.5.8-1,.8s-1-.5-1.1-1c0-.2,0-.3-.3-.3h-.7c-.2,0-.3,0-.3.3,0,1,.9,2.3,2.4,2.3s2.5-1.2,2.4-2.5c-.2-2.1-3.2-2.5-3.2-3.7ZM241.2,114.6l-1.1-6.3c0-.2-.1-.2-.4-.2h-.7c-.2,0-.3,0-.3.3l1.7,8.4c0,.4.1,1.3-.7,1.3-.2,0-.3,0-.3.3v.6c0,.2,0,.3.3.3,1.3,0,2.1-.4,2.5-2.8l1.6-8.2c0-.3-.1-.3-.3-.3h-.7c-.2,0-.3,0-.4.2l-1.1,6.3c0,0-.1,0-.1,0ZM232.8,108.4c0,0,0,0,0,.1l1.4,7.5c0,.2,0,.3.4.3h.5c.3,0,.3,0,.4-.3l2.1-10.9c0-.2,0-.3-.3-.3h-.7c-.3,0-.3,0-.4.3l-1.2,7.2c0,0-.1,0-.1,0l-1.5-7.2c0-.3-.1-.3-.4-.3h-.5c-.2,0-.3,0-.4.3l-1.5,7.2c0,0-.1,0-.1,0l-1.2-7.2c0-.3-.1-.3-.4-.3h-.7c-.3,0-.3,0-.3.3l2.1,10.9c0,.2,0,.3.4.3h.4c.3,0,.3,0,.4-.3l1.5-7.5c0,0,0-.1,0-.1ZM220.6,115.1c-1,0-1.1-.8-1.1-1.1,0-1.2.7-1.2,2.2-1.9v1.7c0,.9-.4,1.3-1.1,1.4ZM222.9,116.3c.2,0,.4,0,.3-.3,0-.2-.1-.5-.1-.8v-4.6c0-1.6-1.2-2.5-2.4-2.5s-2.4,1.1-2.4,2.5c0,.2,0,.3.3.3h.6c.3,0,.3,0,.3-.3,0-.8.5-1.2,1.1-1.2s1,.5,1,1c0,1.8-3.5.6-3.5,3.6v.3c0,1.5.9,2.2,2.1,2.2s1.2-.2,1.6-.6c0,.4.1.5.4.5h.7ZM213.7,110.1c0-.4.3-.8.7-.8.5,0,.9.4.9.9,0,.3,0,.4.3.4h.6c.2,0,.3,0,.3-.3,0-1.2-.9-2.3-2.1-2.3s-2.2.9-2.1,2.2c0,2.2,3.6,2.3,3.2,4.1,0,.4-.5.8-1,.8s-1-.5-1.1-1c0-.2,0-.3-.3-.3h-.7c-.2,0-.3,0-.3.3,0,1,.9,2.3,2.4,2.3s2.5-1.2,2.4-2.5c-.2-2.1-3.2-2.5-3.2-3.7ZM208.3,115.1c-1,0-1.1-.8-1.1-1.1,0-1.2.7-1.2,2.2-1.9v1.7c0,.9-.4,1.3-1.1,1.4ZM210.6,116.3c.2,0,.4,0,.3-.3,0-.2-.1-.5-.1-.8v-4.6c0-1.6-1.2-2.5-2.4-2.5s-2.4,1.1-2.4,2.5c0,.2,0,.3.3.3h.6c.3,0,.3,0,.3-.3,0-.8.5-1.2,1.1-1.2s1,.5,1,1c0,1.8-3.5.6-3.5,3.6v.3c0,1.5.9,2.2,2.1,2.2s1.2-.2,1.6-.6c0,.4.1.5.4.5h.7ZM197.4,110.5c0-1,.6-1.3,1-1.3s1,.3,1,1.3v5.5c0,.2,0,.3.3.3h.7c.2,0,.3,0,.3-.3v-5.5c0-1,.6-1.3,1-1.3s1,.3,1,1.3v5.5c0,.2,0,.3.3.3h.7c.2,0,.3,0,.3-.3v-5.2c0-2-1-2.9-2.2-2.8-.9,0-1.5.6-1.7.8-.4-.6-1-.9-1.7-.8-.6,0-1,.3-1.2.6v-.2c0-.2,0-.3-.3-.3h-.7c-.2,0-.3,0-.3.3v7.6c0,.2,0,.3.3.3h.7c.2,0,.3,0,.3-.3v-5.5ZM191.9,114.6l-1.1-6.3c0-.2-.1-.2-.4-.2h-.7c-.2,0-.3,0-.3.3l1.7,8.4c0,.4.1,1.3-.7,1.3-.2,0-.3,0-.3.3v.6c0,.2,0,.3.3.3,1.3,0,2.1-.4,2.5-2.8l1.6-8.2c0-.3-.1-.3-.3-.3h-.7c-.2,0-.3,0-.4.2l-1.1,6.3c0,0-.1,0-.1,0ZM188,109.4c.2,0,.3,0,.3-.3v-.7c0-.2,0-.3-.3-.3h-.2c-.3,0-.8.1-1.2.5v-.2c0-.2,0-.3-.3-.3h-.7c-.2,0-.3,0-.3.3v7.6c0,.2,0,.3.3.3h.7c.2,0,.3,0,.3-.3v-5c0-.8,0-1.7.8-1.7s.3,0,.5,0ZM180.1,110.7v-4.3q0-.3.3-.3h.6c.7,0,1.3.4,1.3,1.8v1.4c0,1.4-.5,1.8-1.3,1.8h-.6q-.3,0-.3-.3ZM179,104.7c-.2,0-.3,0-.3.3v10.9c0,.2,0,.3.3.3h.7c.2,0,.3,0,.3-.3v-3.4q0-.3.3-.3h.6c1.4,0,2.6-.9,2.6-3.1v-1.3c0-2.3-1.3-3.1-2.6-3.1h-2ZM172.2,116.3h.7c.2,0,.3,0,.3-.3v-7.6c0-.2,0-.3-.3-.3h-.7c-.2,0-.3,0-.3.3v7.6c0,.2,0,.3.3.3ZM171.8,106.5c0,.4.3.8.8.8s.8-.4.8-.8-.4-.8-.8-.8-.8.3-.8.8ZM288.5,99.1v-10.9c0-.2,0-.3-.3-.3h-.7c-.2,0-.3,0-.3.3v10.9c0,.2,0,.3.3.3h.7c.2,0,.3,0,.3-.3ZM285.2,99.1v-10.9c0-.2,0-.3-.3-.3h-.7c-.2,0-.3,0-.3.3v10.9c0,.2,0,.3.3.3h.7c.2,0,.3,0,.3-.3ZM276,98.2c-1,0-1.1-.8-1.1-1.1,0-1.2.7-1.2,2.2-1.9v1.7c0,.9-.4,1.3-1.1,1.4ZM278.3,99.5c.2,0,.4,0,.3-.3,0-.2-.1-.5-.1-.8v-4.7c0-1.6-1.2-2.5-2.4-2.5s-2.4,1.1-2.4,2.5c0,.2,0,.3.3.3h.6c.3,0,.3,0,.3-.3,0-.8.5-1.2,1.1-1.2s1,.5,1,1c0,1.8-3.5.6-3.5,3.6v.3c0,1.5.9,2.2,2.1,2.2s1.2-.2,1.6-.6c0,.4.1.5.4.5h.7ZM269.6,94.9v1.6c0,2.2.7,2.9,2.3,2.9.2,0,.3,0,.3-.3v-.6c0-.2,0-.3-.3-.3-.7,0-.9-.4-.9-1.6v-3l.7-.7c.2-.2.2-.3.2-.4v-1.3c0-.1,0-.2-.2,0l-.6.6v-3.5c0-.2,0-.3-.3-.3h-.7c-.2,0-.3,0-.3.3v4.9l-.3.3c-.1.1-.2.3-.2.5v1.2c0,.1.1.2.2,0l.3-.3ZM267.1,91.2c-.2,0-.3,0-.4.2l-.9,4.7c0,0-.1,0-.1,0l-1.3-4.7c0-.2-.1-.2-.3-.2h-.4c-.2,0-.3,0-.3.2l-1.3,4.7c0,0-.1,0-.1,0l-.9-4.7c0-.2-.1-.2-.4-.2h-.7c-.2,0-.3,0-.3.3l1.5,7.7c0,.2,0,.3.4.3h.6c.3,0,.3,0,.4-.3l1.3-5c0,0,.1,0,.1,0l1.3,5c0,.2,0,.3.4.3h.6c.3,0,.3,0,.4-.3l1.5-7.7c0-.3-.1-.3-.3-.3h-.7ZM255.9,98.2c-1,0-1.1-.8-1.1-1.1,0-1.2.7-1.2,2.2-1.9v1.7c0,.9-.4,1.3-1.1,1.4ZM258.1,99.5c.2,0,.4,0,.3-.3,0-.2-.1-.5-.1-.8v-4.7c0-1.6-1.2-2.5-2.4-2.5s-2.4,1.1-2.4,2.5c0,.2,0,.3.3.3h.6c.3,0,.3,0,.3-.3,0-.8.5-1.2,1.1-1.2s1,.5,1,1c0,1.8-3.5.6-3.5,3.6v.3c0,1.5.9,2.2,2.1,2.2s1.2-.2,1.6-.6c0,.4.1.5.4.5h.7ZM248.6,93.8v-4.3q0-.3.3-.3h.6c.7,0,1.3.4,1.3,1.8v1.4c0,1.4-.5,1.8-1.3,1.8h-.6q-.3,0-.3-.3ZM247.6,87.9c-.2,0-.3,0-.3.3v10.9c0,.2,0,.3.3.3h.7c.2,0,.3,0,.3-.3v-3.4q0-.3.3-.3h.6c1.4,0,2.6-.9,2.6-3.1v-1.3c0-2.3-1.3-3.1-2.6-3.1h-2ZM239.4,98.2c-1,0-1.1-.8-1.1-1.1,0-1.2.7-1.2,2.2-1.9v1.7c0,.9-.4,1.3-1.1,1.4ZM241.7,99.5c.2,0,.4,0,.3-.3,0-.2-.1-.5-.1-.8v-4.7c0-1.6-1.2-2.5-2.4-2.5s-2.4,1.1-2.4,2.5c0,.2,0,.3.3.3h.6c.3,0,.3,0,.3-.3,0-.8.5-1.2,1.1-1.2s1,.5,1,1c0,1.8-3.5.6-3.5,3.6v.3c0,1.5.9,2.2,2.1,2.2s1.2-.2,1.6-.6c0,.4.1.5.4.5h.7ZM231.9,93.7c0-1,.6-1.3,1-1.3s1,.3,1,1.3v5.5c0,.2,0,.3.3.3h.7c.2,0,.3,0,.3-.3v-5.2c0-2-1-2.9-2.2-2.8-.6,0-1,.3-1.2.6v-.2c0-.2,0-.3-.3-.3h-.7c-.2,0-.3,0-.3.3v7.6c0,.2,0,.3.3.3h.7c.2,0,.3,0,.3-.3v-5.5ZM226.2,98.2c-1,0-1.1-.8-1.1-1.1,0-1.2.7-1.2,2.2-1.9v1.7c0,.9-.4,1.3-1.1,1.4ZM228.5,99.5c.2,0,.4,0,.3-.3,0-.2-.1-.5-.1-.8v-4.7c0-1.6-1.2-2.5-2.4-2.5s-2.4,1.1-2.4,2.5c0,.2,0,.3.3.3h.6c.3,0,.3,0,.3-.3,0-.8.5-1.2,1.1-1.2s1,.5,1,1c0,1.8-3.5.6-3.5,3.6v.3c0,1.5.9,2.2,2.1,2.2s1.2-.2,1.6-.6c0,.4.1.5.4.5h.7ZM219.7,98.2c-.2,0-.3,0-.3.3v.6c0,.2,0,.3.3.3,1.9,0,2.4-.8,2.4-3.3v-7.9c0-.2,0-.3-.3-.3h-.7c-.2,0-.3,0-.3.3v8c0,1,0,1.9-1.1,2ZM207.7,93.7c0-1,.6-1.3,1-1.3s1,.3,1,1.3v5.5c0,.2,0,.3.3.3h.7c.2,0,.3,0,.3-.3v-5.5c0-1,.6-1.3,1-1.3s1,.3,1,1.3v5.5c0,.2,0,.3.3.3h.7c.2,0,.3,0,.3-.3v-5.2c0-2-1-2.9-2.2-2.8-.9,0-1.5.6-1.7.8-.4-.6-1-.9-1.7-.8-.6,0-1,.3-1.2.6v-.2c0-.2,0-.3-.3-.3h-.7c-.2,0-.3,0-.3.3v7.6c0,.2,0,.3.3.3h.7c.2,0,.3,0,.3-.3v-5.5ZM203.1,97c0,1-.6,1.3-1,1.3s-1-.3-1-1.3v-5.5c0-.2,0-.3-.3-.3h-.7c-.2,0-.3,0-.3.3v5.2c0,2,1,2.9,2.2,2.8.6,0,1-.3,1.2-.6v.2c0,.2,0,.3.3.3h.7c.2,0,.3,0,.3-.3v-7.6c0-.2,0-.3-.3-.3h-.7c-.2,0-.3,0-.3.3v5.5ZM196.6,93.7v.3c0,.2,0,.3-.3.3h-1.5c-.2,0-.3,0-.3-.3v-.3c0-.9.5-1.3,1.1-1.3s1.1.4,1.1,1.3ZM193,96.5c0,2.3,1.3,3,2.5,3,1.8,0,2.4-1.6,2.4-2.5,0-.2,0-.3-.3-.3h-.7c-.3,0-.3.1-.3.4,0,.7-.5,1.1-1.1,1.1s-1.1-.4-1.1-1.3v-1c0-.2,0-.3.3-.3h2.9c.3,0,.3,0,.3-.3v-1.1c0-2.3-1.3-3-2.5-3s-2.5.8-2.5,3v2.3ZM191.6,92.6c0-.1,0-.2,0-.4v-.7c0-.2,0-.3-.3-.3h-3.8c-.2,0-.3,0-.3.3v.6c0,.2,0,.3.3.3h2.6c0,0,.1,0,0,.1l-2.9,5.4c0,.1,0,.2,0,.4v.7c0,.2,0,.3.3.3h3.8c.2,0,.3,0,.3-.3v-.6c0-.2,0-.3-.3-.3h-2.6c0,0-.1,0,0-.1l2.9-5.5ZM184.4,97c0,1-.6,1.3-1,1.3s-1-.3-1-1.3v-5.5c0-.2,0-.3-.3-.3h-.7c-.2,0-.3,0-.3.3v5.2c0,2,1,2.9,2.2,2.8.6,0,1-.3,1.2-.6v.2c0,.2,0,.3.3.3h.7c.2,0,.3,0,.3-.3v-7.6c0-.2,0-.3-.3-.3h-.7c-.2,0-.3,0-.3.3v5.5ZM175.4,99.5h.3c.2,0,.3,0,.4-.2l1.7-5.9c0,0,0,0,0,0v5.8c0,.2,0,.3.3.3h.7c.2,0,.3,0,.3-.3v-10.9c0-.2,0-.3-.3-.3h-.6c-.2,0-.3,0-.3.2l-2.4,8.4c0,0-.1,0-.1,0l-2.4-8.4c0-.2,0-.2-.3-.2h-.6c-.2,0-.3,0-.3.3v10.9c0,.2,0,.3.3.3h.7c.2,0,.3,0,.3-.3v-5.8c0,0,0,0,0,0l1.7,5.9c0,.2.2.2.4.2ZM159.8,129.5h1.1c.2,0,.3-.1.3-.3v-48.5c0-.2-.1-.3-.3-.3h-1.1c-.2,0-.3.1-.3.3v48.5c0,.2.1.3.3.3ZM101.2,95.5h1.1c.4,0,.6-.2.6-.6v-2.1c0-.4-.2-.6-.6-.6h-1.2c-.3,0-.4,0-.4-.4v-2.9c0-.4-.2-.6-.6-.6h-2.6c-.4,0-.6.2-.6.6v2.9c0,.4,0,.4-.4.4h-.9c-.4,0-.6.2-.6.6v2.1c0,.4.2.6.6.6h.7c.3,0,.4,0,.4.4v7.1c0,3.7,1.5,5,5.7,5s.6-.2.6-.6v-2.3c0-.4-.2-.6-.6-.6-1.1,0-1.5-.5-1.5-1.6v-7.1c0-.3,0-.4.4-.4ZM116.4,94.7c-1.4,0-2.3.7-2.7,1.3v-3.3c0-.4.1-.5.5-.5h6c.4,0,.5-.2.5-.5v-2.7c0-.4-.2-.5-.5-.5h-9.5c-.4,0-.5.2-.5.5v9.9c0,.4.2.5.6.5h2.5c.2,0,.3,0,.4-.3.3-.5.9-1,1.7-1s1.9.4,1.9,2.1v2.4c0,1.7-1.1,2.1-1.9,2.1s-1.5-.5-1.7-1c-.1-.3-.3-.3-.5-.3h-2.6c-.3,0-.4.2-.3.5.4,3.6,2.9,4.4,5.1,4.4s5.9-1.5,5.9-5.9v-2c0-4.4-2.8-5.8-4.9-5.7ZM145,99.3c0,.4-.1.5-.5.5h-2.5l3-4.4v3.9ZM150,99.8h-.3c-.4,0-.5-.1-.5-.5v-10.4c0-.4-.2-.6-.5-.6h-2.8c-.2,0-.4,0-.6.3l-7.2,10.9c-.2.4-.3.6-.3,1.1v2.4c0,.4.2.5.5.5h6.2c.4,0,.5.1.5.5v3.3c0,.4.2.5.5.5h3.2c.4,0,.5-.2.5-.5v-3.3c0-.4.1-.5.5-.5h.3c.4,0,.5-.2.5-.5v-2.7c0-.4-.2-.5-.5-.5ZM135.3,88.3h-2.6c-.2,0-.4.1-.8.3l-4.4,2.9c-.4.2-.2.4,0,.8l1.3,2c.2.3.4.2.8,0l1.9-1.2v14.3c0,.4.2.5.5.5h3.2c.4,0,.5-.2.5-.5v-18.5c0-.4-.2-.6-.5-.6ZM76.5,107.9h3.2c.4,0,.5-.2.5-.5v-9c0-.2.2-.2.3,0l3.1,5.3c.2.4.3.5.7.5h0c.3,0,.5-.2.7-.5l3.1-5.3c.1-.2.3-.1.3,0v9c0,.4.2.5.5.5h3.2c.4,0,.5-.2.5-.5v-18.5c0-.4-.2-.6-.5-.6h-2.1c-.4,0-.5.3-.7.6l-5,9.1c0,.2-.2.2-.3,0l-5-9.1c-.2-.3-.3-.6-.7-.6h-2.1c-.4,0-.5.2-.5.6v18.5c0,.4.2.5.5.5ZM128.5,104.9h0l-2.8,6.2c0,.3-.3.5-.6.5h-1.8c-.3,0-.6-.3-.5-.6l1.5-6.2c0-.2.3-.4.5-.4h3.4,0c.2,0,.4.2.4.4s0,.1,0,.1Z"/>
</svg>