<?xml version="1.0" encoding="UTF-8"?>
<svg width="756" height="420" id="Layer_1" xmlns="http://www.w3.org/2000/svg" version="1.1" viewBox="0 0 378 210">
  <defs>
    <style>
      .st0 {
        fill-rule: evenodd;
      }

      .st0, .st1 {
        fill: #D6D6D6;
      }
    </style>
  </defs>
  <path class="st1" d="M309,113.9h-3.8v20.3h3.8v-20.3Z"/>
  <path class="st0" d="M296,131.2c-.7,0-1.4-.2-2-.6s-1-.9-1.3-1.6v-2.9c.2-.7.6-1.4,1.2-1.8.6-.5,1.3-.7,2.1-.7,1.4,0,3.1,1,3.1,3.8s-1.7,3.8-3.1,3.8ZM296.9,120.4c-.8,0-1.7.1-2.4.5-.8.4-1.4.9-1.9,1.6v-1.9h-3.7v19.4h3.8v-7.3c.5.6,1.1,1.1,1.9,1.4.7.3,1.5.4,2.3.4,3.1,0,6.1-2,6.1-7s-2.9-7.1-6-7.1Z"/>
  <path class="st0" d="M270.7,131.9c-.2,0-.4,0-.5,0-.2,0-.3-.2-.5-.3-.1-.1-.2-.3-.3-.5,0-.2,0-.4,0-.5,0-.8.5-1.4,1.7-1.6l3.2-.5v.9c-.3.7-.8,1.4-1.4,1.8-.6.5-1.4.7-2.2.8h0ZM278.1,131.2v-5.6c0-3.1-1.9-5.2-5.9-5.2s-6,2.1-6,5h3.6c0-1.3.7-2.1,2.3-2.1s2.2.8,2.2,2.2v.7l-4.3.6c-3.1.5-4.3,2-4.3,4.1s1.5,3.6,4.1,3.6c.9,0,1.8-.1,2.6-.5.8-.4,1.5-.9,2.1-1.6,0,.6.1,1.2.3,1.8h3.7v-.3c-.3-.9-.4-1.7-.4-2.6Z"/>
  <path class="st0" d="M258.6,120.4c-.8,0-1.7.1-2.4.5-.8.4-1.4.9-1.9,1.6v-1.8h-3.7v13.5h3.8v-8c.1-.7.5-1.3,1-1.8.5-.5,1.2-.7,2-.7,1.5,0,2.4.8,2.4,2.6v8h3.8v-8.5c0-3.2-1.6-5.3-4.9-5.3Z"/>
  <path class="st0" d="M247.4,135.8v-15.2h-3.8v14.7c0,1.2-.6,1.7-1.5,1.7-.5,0-1.1,0-1.6-.2v3.1c.7.2,1.5.3,2.3.3,2.8,0,4.7-1.3,4.7-4.5Z"/>
  <path class="st0" d="M242.8,116.4c0,.5,0,1,.3,1.5.2.4.6.8,1,1,.4.2,1,.3,1.5.3.5,0,1-.3,1.3-.6.4-.3.6-.8.8-1.3.1-.5,0-1,0-1.5-.2-.5-.5-.9-.9-1.2-.4-.3-.9-.4-1.4-.4-.3,0-.6,0-.9,0-.3,0-.6.2-.8.4-.2.2-.4.5-.5.7-.1.3-.2.6-.2.9Z"/>
  <path class="st0" d="M237.8,120.6l-2.1,6.4c-.3,1-.8,2.8-1.2,4.1-.3-1.3-.9-3.1-1.2-4.1l-2.2-6.4h-4.1l5.7,14.1-.6,1.3c-.2.4-.5.8-.9,1-.4.2-.9.3-1.4.3-.5,0-1,0-1.5-.1v2.9c.6,0,1.3.1,1.9.1,2.5,0,4-.9,4.9-2.9l1.4-3.1,5.3-13.6h-4Z"/>
  <path class="st0" d="M220.1,134.5c3.8,0,6.5-2.2,6.6-5.5h-3.7c0,.4-.1.7-.3,1s-.4.6-.7.9c-.3.2-.6.4-.9.5-.3.1-.7.1-1.1.1-1.8,0-3-1.3-3-4.2s1.4-4,3.1-4c.4,0,.7,0,1,.1.3.1.6.3.9.5.3.2.5.5.6.8.1.3.2.7.2,1h3.8c-.1-3.2-2.8-5.4-6.6-5.4-.9,0-1.9.1-2.7.4-.9.3-1.7.9-2.3,1.5-.7.7-1.2,1.5-1.5,2.3-.3.9-.5,1.8-.4,2.7,0,4.4,2.9,7,7,7Z"/>
  <path class="st0" d="M209,120.6l-2.1,6.4c-.3,1-.8,2.8-1.2,4.1-.4-1.3-.9-3.1-1.2-4.1l-2.2-6.4h-4.1l5.7,14.1-.6,1.3c-.2.4-.5.8-.9,1s-.9.3-1.4.3c-.5,0-1,0-1.5-.1v2.9c.6,0,1.3.1,1.9.1,2.5,0,4-.9,4.9-2.9l1.4-3.1,5.3-13.6h-4Z"/>
  <path class="st0" d="M189.7,131.2c-1.4,0-3.1-.9-3.1-3.8s1.7-3.8,3.1-3.8c.7,0,1.5.2,2.1.7.6.5,1,1.1,1.2,1.8v2.5c-.2.7-.6,1.4-1.2,1.8-.6.5-1.3.7-2.1.7ZM196.7,131.1v-17.2h-3.8v8.2c-.5-.6-1.1-1-1.9-1.3-.7-.3-1.5-.4-2.3-.4-3.1,0-6.1,2-6.1,7s3,7.1,6,7.1c.8,0,1.7-.1,2.4-.5.8-.4,1.4-.9,1.9-1.6,0,.6.1,1.3.3,1.9h3.7v-.3c-.2-.9-.4-1.8-.3-2.8h0Z"/>
  <path class="st0" d="M173.1,131.9c-.2,0-.4,0-.5,0-.2,0-.3-.2-.5-.3-.1-.1-.2-.3-.3-.5,0-.2,0-.4,0-.5,0-.8.5-1.4,1.7-1.6l3.2-.5v.9c-.3.7-.8,1.4-1.4,1.8-.6.5-1.4.7-2.2.8h0ZM180.4,131.2v-5.6c0-3.1-1.9-5.2-5.9-5.2s-5.9,2.1-5.9,5h3.7c0-1.3.7-2.1,2.2-2.1s2.2.8,2.2,2.2v.7l-4.3.6c-3.1.5-4.3,2-4.3,4.1s1.5,3.6,4.1,3.6c.9,0,1.8-.1,2.6-.5.8-.4,1.5-.9,2.1-1.6,0,.6.1,1.2.3,1.8h3.7v-.3c-.3-.8-.4-1.7-.4-2.6Z"/>
  <path class="st0" d="M166.2,120.4c-.7,0-1.5.2-2.1.6-.6.4-1.2.9-1.5,1.6v-1.9h-3.7v13.5h3.8v-7.4c.5-1.9,1.6-2.8,2.9-2.8.5,0,1,0,1.5.1v-3.7c-.3,0-.6,0-.9,0Z"/>
  <path class="st0" d="M154.5,131.2c-1.1,0-1.7-.6-1.7-1.9v-5.4h3.7v-3.2h-3.7v-4h-3.7v4h-1.9v3.1h1.9v5.7c0,3.7,2.1,5,4.6,5,1,0,2,0,2.9-.3v-3.1c-.7.1-1.4.2-2.2.2Z"/>
  <path class="st0" d="M235.1,99.7c-.2,0-.4,0-.5,0-.2,0-.3-.2-.5-.3-.1-.1-.2-.3-.3-.5,0-.2,0-.4,0-.5,0-.8.5-1.4,1.7-1.6l3.2-.5v.9c-.3.7-.8,1.4-1.4,1.8-.6.5-1.4.7-2.2.8h0ZM242.4,99.1v-5.6c0-3.1-1.9-5.2-5.9-5.2s-6,2.1-6,5h3.6c0-1.3.7-2.1,2.3-2.1s2.2.8,2.2,2.2v.7l-4.3.6c-3.1.5-4.3,2-4.3,4.1s1.5,3.6,4.1,3.6c.9,0,1.8-.1,2.6-.5.8-.4,1.5-.9,2.1-1.6,0,.6.1,1.2.3,1.8h3.7v-.3c-.2-.9-.4-1.7-.4-2.6Z"/>
  <path class="st0" d="M229.7,102l-5.8-7.3,5.6-6.2h-4.6l-4.9,5.7v-12.4h-3.8v20.3h3.8v-6.6l5.1,6.6h4.6Z"/>
  <path class="st0" d="M210.8,88.5l-2.2,6.4c-.3,1-.8,2.8-1.2,4.1-.3-1.3-.9-3.1-1.2-4.1l-2.2-6.4h-4.1l5.7,14.1-.6,1.3c-.2.4-.5.8-.9,1-.4.2-.9.3-1.4.3-.5,0-1,0-1.5-.1v2.8c.6,0,1.3.1,1.9.1,2.5,0,4-.9,4.9-2.9l1.4-3.1,5.4-13.5h-4Z"/>
  <path class="st0" d="M193.8,96.9l5-5.6v-2.8h-11.6v3h3.5c1,0,2.3,0,3.2,0-.6.6-1.5,1.5-2.2,2.3l-4.8,5.6v2.8h12v-3h-4.3c-1,0-2.3,0-3.1,0,.6-.6,1.5-1.5,2.1-2.2Z"/>
  <path class="st0" d="M184.4,99v-10.5h-3.8v8.2c-.2.7-.6,1.3-1.1,1.7-.6.4-1.2.7-1.9.7-1.4,0-2.2-.7-2.2-2.3v-8.2h-3.8v8.8c0,3.1,1.7,5,4.7,5,.9,0,1.7-.1,2.5-.5.8-.4,1.5-.9,2-1.7,0,.7.2,1.3.4,1.9h3.8v-.3c-.3-.9-.4-1.8-.4-2.8Z"/>
  <path class="st0" d="M164.3,88.2c-.9,0-1.7.2-2.5.6-.8.4-1.4,1-1.9,1.7-.3-.7-.9-1.4-1.6-1.8-.7-.4-1.5-.6-2.3-.5-.8,0-1.5.1-2.2.5-.7.4-1.3.9-1.7,1.5v-1.7h-3.7v13.5h3.8v-8.2c.4-1.5,1.3-2.4,2.5-2.4s2.2.7,2.2,2.5v8.1h3.8v-8.2c.4-1.5,1.2-2.4,2.5-2.4s2.2.7,2.2,2.5v8.1h3.8v-8.6c0-3.2-1.6-5.3-4.7-5.3Z"/>
  <path class="st1" d="M94.1,133.9h-25.1v-6.3h20.1l-10.2-22.1,3.6-4.4,23,5.3-5.3-23,4.4-3.6,22.1,10.2v-20.1h6.3v25.1l-4.5,2.9-20.7-9.6,5,21.7-3.8,3.8-21.7-5,9.6,20.7-2.9,4.5Z"/>
  <path class="st0" d="M283.5,133.9c.5,0,1-.2,1.5-.4.4-.3.8-.7,1-1.2.2-.5.3-1,.1-1.5-.1-.5-.4-1-.7-1.4-.4-.4-.8-.6-1.4-.7-.5-.1-1,0-1.5.2s-.9.5-1.2,1c-.3.4-.4.9-.4,1.5,0,.3,0,.7.2,1,.1.3.3.6.6.9.2.2.5.4.9.6.3.1.7.2,1,.2Z"/>
</svg>